<svg height="477.60001pt" viewBox="0 0 477.60001 477.60001" width="477.60001pt" xmlns="http://www.w3.org/2000/svg"><path d="m477.601562 238.800781c0 131.886719-106.914062 238.800781-238.800781 238.800781s-238.800781-106.914062-238.800781-238.800781 106.914062-238.800781 238.800781-238.800781 238.800781 106.914062 238.800781 238.800781zm0 0" fill="#382b73"/><path d="m445.398438 238.800781c0 114.101563-92.496094 206.597657-206.597657 206.597657-114.101562 0-206.597656-92.496094-206.597656-206.597657 0-114.101562 92.496094-206.597656 206.597656-206.597656 114.101563 0 206.597657 92.496094 206.597657 206.597656zm0 0" fill="#473080"/><path d="m328.882812 337.601562c20.859376-22.152343 33.667969-51.972656 33.667969-84.800781 0-1.925781-.058593-3.839843-.144531-5.742187-.027344-.570313-.0625-1.132813-.097656-1.699219-.082032-1.394531-.1875-2.78125-.316406-4.164063-.054688-.566406-.101563-1.136718-.164063-1.703124-.1875-1.753907-.402344-3.5-.664063-5.226563-.019531-.121094-.03125-.242187-.046874-.359375-.28125-1.839844-.617188-3.660156-.980469-5.472656-.105469-.542969-.230469-1.082032-.34375-1.621094-.28125-1.320312-.582031-2.628906-.90625-3.933594-.140625-.558594-.277344-1.117187-.421875-1.671875-.414063-1.574219-.855469-3.132812-1.328125-4.679687-.0625-.207032-.117188-.414063-.183594-.621094-.007813-.035156-.019531-.070312-.027344-.105469 0 .003907-.003906.003907-.003906.007813-.097656-.308594-.210937-.609375-.3125-.917969-.167969-.53125-.359375-1.054687-.535156-1.585937-.578125-1.707032-1.183594-3.402344-1.832031-5.078126-.3125-.8125-.625-1.625-.957032-2.433593-.328125-.792969-.664062-1.582031-1.003906-2.367188-.417969-.957031-.851562-1.90625-1.289062-2.851562-.289063-.621094-.570313-1.246094-.871094-1.863281-.726563-1.492188-1.484375-2.96875-2.265625-4.425782-.273438-.507812-.558594-1.007812-.839844-1.511718-.609375-1.09375-1.230469-2.183594-1.875-3.257813-.296875-.503906-.597656-1.007813-.90625-1.507813-.839844-1.363281-1.699219-2.710937-2.589844-4.035156-.09375-.136718-.179687-.28125-.273437-.421875-15.570313-23.015625-38.683594-40.511719-65.789063-48.9375-1.734375-.542969-3.492187-1.027343-5.257812-1.496093-.535157-.140626-1.070313-.269532-1.609375-.402344-1.308594-.324219-2.628906-.628906-3.953125-.914063-.546875-.113281-1.089844-.234375-1.640625-.34375-1.792969-.359375-3.59375-.6875-5.414063-.96875-.023437-.003906-.046875-.007812-.066406-.011719-1.839844-.28125-3.695313-.507812-5.5625-.707031-.554687-.058593-1.113281-.105469-1.671875-.15625-1.386719-.132812-2.78125-.238281-4.179688-.320312-.566406-.03125-1.125-.070313-1.691406-.09375-1.902344-.085938-3.8125-.144531-5.734375-.144531s-3.832031.058593-5.734375.144531c-.566406.023437-1.128906.0625-1.691406.09375-1.402344.085937-2.792969.1875-4.179688.320312-.558593.050781-1.117187.097657-1.675781.160157-1.863281.199218-3.71875.425781-5.554687.703124-.023438.003907-.050782.007813-.074219.011719-1.820313.28125-3.617187.609375-5.410156.96875-.546875.109375-1.09375.230469-1.640625.34375-1.324219.285157-2.640625.585938-3.949219.914063-.539063.132812-1.082031.261718-1.617187.40625-1.761719.464844-3.515626.949218-5.246094 1.488281-26.074219 8.101563-48.425782 24.617187-63.953125 46.34375-.175781.246094-.351563.492187-.523438.738281-.792969 1.125-1.574219 2.265625-2.328125 3.421875-.101562.152344-.195312.308594-.292968.457031-2.453126 3.78125-4.699219 7.695313-6.734376 11.738282-.042968.089844-.089843.171875-.132812.261718-.640625 1.285157-1.257812 2.585938-1.855469 3.902344-.097656.214844-.195312.433594-.296875.648438-1.992187 4.433594-3.761718 8.992187-5.226562 13.6875 0-.003906-.003906-.003906-.003906-.007813-.007813.035157-.019532.070313-.03125.101563-.0625.207031-.117188.414062-.179688.621094-.476562 1.546874-.914062 3.109374-1.328125 4.679687-.148437.558594-.285156 1.113281-.421875 1.671875-.324219 1.304688-.625 2.613281-.910156 3.933594-.113282.542968-.234375 1.078125-.34375 1.625-.359375 1.808594-.695313 3.632812-.976563 5.46875-.019531.121094-.03125.242187-.046875.359375-.261718 1.730469-.476562 3.472656-.664062 5.226562-.0625.566407-.113282 1.136719-.164063 1.707031-.128906 1.378907-.234375 2.769532-.316406 4.164063-.03125.566406-.070313 1.128906-.097656 1.695313-.085938 1.90625-.144531 3.816406-.144531 5.742187 0 26.3125 8.234374 50.683594 22.234374 70.738281.574219.824219 1.152344 1.648438 1.746094 2.457032.515625.703124 1.042969 1.394531 1.574219 2.082031v.003906c.550781.71875 1.109375 1.429687 1.679687 2.136719.558594.695312 1.117188 1.390625 1.691407 2.074218 0 0 0 .003907.003906.003907.574219.683593 1.160156 1.347656 1.746094 2.015625.003906.003906.003906.003906.003906.003906s0 0 .003906.003906c1.089844 1.242188 2.207031 2.464844 3.347657 3.664063l.007812.007812c.53125.5625 1.058594 1.132813 1.601562 1.683594.742188.75 1.5 1.480469 2.257813 2.210937.484375.464844.960937.925782 1.453125 1.382813.804688.753906 1.621094 1.496094 2.449219 2.226563.414062.367187.835937.726562 1.257812 1.089843 1.578125 1.359375 3.1875 2.679688 4.835938 3.960938.003906.003906.011719.007812.019531.015625 1.648438 1.28125 3.328125 2.519531 5.039062 3.71875.097657.066406.195313.136718.292969.207031 1.148438.796875 2.3125 1.570313 3.488281 2.328125.203126.132812.410157.265625.613282.394531 4.820312 3.074219 9.863281 5.816407 15.105468 8.207031.003907.003907.011719.007813.015626.011719 15.628906 7.125 32.984374 11.128907 51.28125 11.128907 12.980468 0 25.488281-2.007813 37.242187-5.710938 0 0 .003906-.003906.003906-.003906.007813 0 .011719-.003906.019531-.003906 1.53125-.484376 3.046876-1 4.550782-1.542969.765625-.273438 1.523437-.570313 2.285156-.859375.90625-.34375 1.808594-.699219 2.703125-1.066406h.003906c.777344-.316407 1.558594-.640626 2.328125-.972657.957032-.417969 1.90625-.851562 2.851563-1.289062.003906-.003907.007812-.003907.007812-.003907.003907 0 .003907-.003906.003907-.003906 1.0625-.492187 2.117187-.996094 3.160156-1.519531h.003906c.003906-.003906.003906-.003906.007812-.003906.992188-.496094 1.984376-.996094 2.960938-1.519531h.003906c.761719-.40625 1.515625-.828126 2.269532-1.25.777343-.4375 1.554687-.878907 2.324218-1.335938.753906-.445312 1.507813-.890625 2.253906-1.347656.851563-.527344 1.6875-1.070313 2.523438-1.617188 1.160156-.757812 2.300781-1.53125 3.429688-2.320312.71875-.503906 1.441406-1.007813 2.148437-1.53125.75-.546875 1.488281-1.109375 2.226563-1.675782.636718-.488281 1.261718-.984374 1.890624-1.484374v-.003907h.003907c.730469-.585937 1.460937-1.167969 2.179687-1.769531.6875-.578125 1.359375-1.171875 2.03125-1.761719 1.167969-1.019531 2.3125-2.058593 3.441406-3.121093.546876-.515626 1.09375-1.03125 1.628907-1.554688.703125-.6875 1.398437-1.386719 2.085937-2.089844.503906-.53125 1.003906-1.058594 1.503906-1.589844-.003906 0 0 0 0 0zm0 0" fill="#382b73"/><path d="m362.550781 238.800781c0 68.34375-55.40625 123.75-123.75 123.75-68.347656 0-123.75-55.40625-123.75-123.75 0-68.347656 55.402344-123.75 123.75-123.75 68.34375 0 123.75 55.402344 123.75 123.75zm0 0" fill="#fff"/><path d="m238.800781 288.550781c-55.457031 0-102.394531-36.480469-118.125-86.75-3.65625 11.683594-5.625 24.109375-5.625 37 0 68.34375 55.402344 123.75 123.75 123.75 68.34375 0 123.75-55.40625 123.75-123.75 0-12.890625-1.972656-25.316406-5.625-37-15.734375 50.269531-62.667969 86.75-118.125 86.75zm0 0" fill="#e6e7e8"/><path d="m261.007812 277.367188h-44.414062c-3.464844 0-6.539062-2.234376-7.609375-5.527344l-13.722656-42.242188c-1.070313-3.296875.101562-6.90625 2.90625-8.945312l35.933593-26.105469c2.800782-2.035156 6.597657-2.035156 9.402344 0l35.933594 26.105469c2.800781 2.039062 3.976562 5.648437 2.90625 8.945312l-13.726562 42.242188c-1.074219 3.292968-4.144532 5.527344-7.609376 5.527344zm-60.125-136.203126 34.507813 16.246094c2.160156 1.019532 4.660156 1.019532 6.816406 0l34.511719-16.246094c4.066406-1.917968 5.757812-6.804687 3.742188-10.824218l-4.878907-9.730469c-11.621093-3.613281-23.972656-5.558594-36.78125-5.558594-12.808593 0-25.164062 1.945313-36.78125 5.558594l-4.882812 9.730469c-2.011719 4.019531-.320313 8.90625 3.746093 10.824218zm-39.066406 66.042969-4.785156-37.84375c-.566406-4.460937-4.691406-7.578125-9.136719-6.902343l-7.328125 1.109374c-15.230468 19.863282-24.5625 44.46875-25.414062 71.230469l6.992187 6.902344c3.203125 3.160156 8.375 3.0625 11.453125-.214844l26.113282-27.800781c1.636718-1.738281 2.40625-4.117188 2.105468-6.480469zm28.035156 95.847657c-1.148437-2.089844-3.171874-3.5625-5.515624-4.007813l-37.46875-7.140625c-4.414063-.839844-8.65625 2.121094-9.390626 6.558594l-1.511718 9.175781c13.785156 20.554687 33.578125 36.722656 56.855468 46.046875l12.066407-6.25c3.992187-2.066406 5.5-7.015625 3.335937-10.957031zm131.773438-8.1875-37.46875 7.140624c-2.34375.445313-4.363281 1.917969-5.515625 4.007813l-18.367187 33.425781c-2.164063 3.941406-.660157 8.890625 3.335937 10.957032l12.433594 6.4375c22.804687-7.1875 42.75-20.800782 57.730469-38.71875l-2.753907-16.691407c-.738281-4.4375-4.980469-7.398437-9.394531-6.558593zm19.746094-125.320313-15.144532-2.296875c-4.445312-.675781-8.574218 2.445312-9.136718 6.90625l-4.789063 37.839844c-.300781 2.367187.472657 4.746094 2.105469 6.484375l26.117188 27.800781c3.078124 3.273438 8.25 3.371094 11.449218.214844l10.507813-10.371094c-.523438-24.636719-8.207031-47.507812-21.109375-66.578125zm0 0" fill="#1caee4"/><path d="m331.015625 301.425781c-.734375-4.4375-4.976563-7.398437-9.390625-6.558593l-37.46875 7.140624c-2.34375.445313-4.363281 1.917969-5.515625 4.007813l-18.367187 33.425781c-2.164063 3.941406-.660157 8.890625 3.335937 10.957032l12.433594 6.4375h.007812c1.539063-.484376 3.058594-1.007813 4.570313-1.546876.765625-.277343 1.523437-.570312 2.285156-.859374.90625-.347657 1.808594-.703126 2.707031-1.066407.777344-.320312 1.554688-.640625 2.328125-.976562.960938-.414063 1.910156-.851563 2.859375-1.292969 1.066407-.492188 2.121094-1 3.167969-1.523438.996094-.496093 1.988281-.996093 2.972656-1.519531.761719-.40625 1.515625-.832031 2.269532-1.253906.777343-.4375 1.554687-.882813 2.324218-1.335937.753906-.445313 1.507813-.890626 2.253906-1.347657.851563-.527343 1.6875-1.074219 2.523438-1.621093 1.15625-.753907 2.300781-1.527344 3.429688-2.316407.71875-.503906 1.441406-1.011719 2.148437-1.53125.75-.546875 1.488281-1.109375 2.226563-1.675781.636718-.488281 1.265624-.988281 1.890624-1.488281.730469-.585938 1.464844-1.167969 2.1875-1.769531.6875-.578126 1.355469-1.171876 2.03125-1.761719 1.164063-1.019531 2.3125-2.058594 3.4375-3.125.546876-.511719 1.09375-1.027344 1.628907-1.550781.703125-.6875 1.402343-1.386719 2.089843-2.089844.507813-.523438 1.003907-1.050782 1.503907-1.582032 1.679687-1.78125 3.316406-3.601562 4.890625-5.480468zm0 0" fill="#009add"/><path d="m189.851562 303.054688c-1.148437-2.089844-3.171874-3.5625-5.515624-4.007813l-37.46875-7.140625c-4.414063-.839844-8.65625 2.121094-9.390626 6.558594l-1.511718 9.175781c.429687.640625.882812 1.265625 1.324218 1.898437.574219.824219 1.152344 1.648438 1.746094 2.457032.515625.703125 1.042969 1.390625 1.574219 2.082031.550781.71875 1.113281 1.429687 1.679687 2.136719.558594.695312 1.117188 1.394531 1.695313 2.078125.574219.683593 1.164063 1.351562 1.75 2.019531 1.09375 1.246094 2.210937 2.46875 3.351563 3.667969.535156.566406 1.0625 1.136719 1.609374 1.691406.742188.75 1.5 1.476563 2.257813 2.207031.484375.464844.960937.929688 1.453125 1.386719.804688.75 1.621094 1.492187 2.449219 2.222656.414062.371094.835937.730469 1.257812 1.089844 3.164063 2.726563 6.460938 5.300781 9.898438 7.695313.097656.070312.191406.140624.289062.207031 1.148438.800781 2.316407 1.570312 3.492188 2.332031.203125.132812.40625.261719.613281.394531 6.429688 4.089844 13.253906 7.613281 20.417969 10.484375l12.066406-6.25c3.992187-2.066406 5.5-7.015625 3.335937-10.957031zm0 0" fill="#009add"/><path d="m133.597656 241.488281 4.484375-4.777343c-7.515625-10.507813-13.429687-22.238282-17.378906-34.839844-3.261719 10.449218-5.1875 21.488281-5.550781 32.925781l6.992187 6.90625c3.203125 3.160156 8.375 3.0625 11.453125-.214844zm0 0" fill="#009add"/><path d="m351.972656 246.492188 10.507813-10.371094c-.253907-11.914063-2.195313-23.40625-5.578125-34.261719-4.550782 14.523437-11.722656 27.886719-20.941406 39.558594l4.566406 4.859375c3.074218 3.277344 8.25 3.375 11.445312.214844zm0 0" fill="#009add"/><path d="m234.800781 194.117188v-36.984376l.589844.277344c2.160156 1.015625 4.660156 1.015625 6.816406 0l.59375-.277344v36.984376c-2.476562-1.433594-5.523437-1.433594-8 0zm77.5 17.878906.078125-.605469-32.378906 9.746094c2.152344 1.894531 3.121094 4.785156 2.546875 7.589843l32.339844-9.738281-.480469-.511719c-1.632812-1.738281-2.402344-4.113281-2.105469-6.480468zm-50.074219 65.273437 15.933594 29.621094.480469-.875c1.148437-2.089844 3.167969-3.5625 5.511719-4.007813l.421875-.078124-16.058594-29.855469c-1 2.777343-3.425781 4.753906-6.289063 5.195312zm-64.886718-55.90625-35.628906-15.003906.109374.847656c.300782 2.367188-.472656 4.746094-2.105468 6.484375l-.34375.363282 35.777344 15.066406c-.726563-2.8125.117187-5.773438 2.191406-7.757813zm154.632812 25.128907c-2.324218 2.292968-5.683594 2.847656-8.53125 1.734374l-18.703125 46.675782c3.011719.625 5.476563 2.96875 6.164063 6.125l22.363281-55.808594zm-142.492187 26.539062-26.222657 25.8125 1.078126.203125c2.34375.445313 4.363281 1.917969 5.511718 4.007813l.1875.339843 26.453125-26.035156c-2.984375-.042969-5.667969-1.730469-7.007812-4.328125zm-87.011719-31.070312 14.714844 58.292968.292968-1.789062c.535157-3.222656 2.925782-5.644532 5.882813-6.417969l-12.304687-48.753906c-2.800782 1.265625-6.171876.816406-8.585938-1.332031zm157.179688-113.246094.8125 1.625c1.464843 2.917968.953124 6.285156-.984376 8.648437l38.609376 32.207031c1.523437-2.667968 4.515624-4.289062 7.730468-3.96875zm-20.328126 214.105468-50.167968-3.359374c.335937 3.054687-1.128906 6.125-3.921875 7.753906l59.988281 4.019531-1.609375-.835937c-2.90625-1.5-4.46875-4.523438-4.289063-7.578126zm-62.328124-212.09375-50.894532 32.003907 1.796875-.269531c3.230469-.492188 6.269531 1.035156 7.921875 3.609374l42.5625-26.765624c-2.066406-2.273438-2.683594-5.621094-1.386718-8.578126zm0 0" fill="#e6e7e8"/><g fill="#d1d3d4"><path d="m189.851562 303.054688.1875.339843 18.796876-18.5c-2.980469-.742187-5.914063-1.601562-8.808594-2.554687l-16.765625 16.503906 1.074219.203125c2.34375.445313 4.363281 1.917969 5.515624 4.007813zm0 0"/><path d="m137.476562 298.464844c.53125-3.222656 2.921876-5.644532 5.882813-6.417969l-12.304687-48.753906c-2.800782 1.265625-6.171876.816406-8.585938-1.332031l14.714844 58.292968zm0 0"/><path d="m278.160156 306.890625.480469-.875c1.148437-2.089844 3.167969-3.5625 5.511719-4.007813l.421875-.078124-10.023438-18.636719c-2.613281.785156-5.269531 1.480469-7.953125 2.097656zm0 0"/><path d="m263.605469 350.398438c-2.898438-1.5-4.464844-4.523438-4.285157-7.578126l-50.167968-3.359374c.335937 3.054687-1.128906 6.125-3.921875 7.753906l59.988281 4.019531zm0 0"/><path d="m330.90625 301.027344 22.363281-55.808594-1.292969 1.273438c-2.324218 2.296874-5.683593 2.851562-8.53125 1.738281l-18.703124 46.671875c3.011718.625 5.472656 2.964844 6.164062 6.125zm0 0"/></g></svg>