<svg height="477.60001pt" viewBox="0 0 477.60001 477.60001" width="477.60001pt" xmlns="http://www.w3.org/2000/svg"><path d="m477.601562 238.800781c0 131.886719-106.914062 238.800781-238.800781 238.800781s-238.800781-106.914062-238.800781-238.800781 106.914062-238.800781 238.800781-238.800781 238.800781 106.914062 238.800781 238.800781zm0 0" fill="#382b73"/><path d="m445.398438 238.800781c0 114.101563-92.496094 206.597657-206.597657 206.597657-114.101562 0-206.597656-92.496094-206.597656-206.597657 0-114.101562 92.496094-206.597656 206.597656-206.597656 114.101563 0 206.597657 92.496094 206.597657 206.597656zm0 0" fill="#473080"/><g fill="#382b73"><path d="m368.308594 161.367188c-6.707032-11.628907-18.722656-18.566407-32.148438-18.566407h-194.722656c-13.421875 0-25.4375 6.9375-32.144531 18.566407-6.707031 11.625-6.703125 25.503906.011719 37.121093l97.363281 168.441407c6.710937 11.609374 18.722656 18.542968 32.132812 18.542968 13.410157 0 25.421875-6.933594 32.132813-18.542968l97.359375-168.441407c6.71875-11.617187 6.722656-25.5.015625-37.121093zm-129.507813 200.507812c-2.34375 0-8.179687-.660156-11.699219-6.753906l-97.363281-168.441406c-3.527343-6.101563-1.179687-11.488282-.003906-13.519532 1.171875-2.03125 4.660156-6.761718 11.707031-6.761718h194.71875c7.046875 0 10.535156 4.730468 11.707032 6.761718 1.171874 2.035156 3.523437 7.417969-.003907 13.519532l-97.359375 168.441406c-3.527344 6.09375-9.359375 6.753906-11.703125 6.753906zm0 0"/><path d="m282.890625 287.046875c0-.207031-.003906-.421875-.003906-.632813-.003907-.066406-.003907-.132812-.003907-.203124-.003906-.144532-.007812-.292969-.011718-.4375 0-.074219-.003906-.148438-.007813-.222657-.003906-.140625-.007812-.277343-.015625-.417969-.003906-.074218-.003906-.152343-.007812-.226562-.011719-.152344-.019532-.308594-.027344-.464844 0-.050781-.003906-.101562-.007812-.15625-.023438-.421875-.058594-.84375-.09375-1.261718-.007813-.058594-.011719-.113282-.015626-.171876-.015624-.15625-.03125-.3125-.046874-.472656-.007813-.054687-.011719-.109375-.019532-.164062-.015625-.160156-.035156-.320313-.054687-.476563-.003907-.054687-.011719-.109375-.019531-.164062-.023438-.183594-.042969-.367188-.070313-.550781-.003906-.019532-.007813-.042969-.007813-.058594-.0625-.429688-.125-.859375-.195312-1.285156-.003906-.023438-.007812-.046876-.011719-.070313-.035156-.183594-.066406-.371094-.097656-.554687-.007813-.035157-.015625-.074219-.023437-.109376-.03125-.175781-.0625-.351562-.097657-.523437-.007812-.035156-.015625-.066406-.019531-.101563-.128906-.632812-.269531-1.261718-.421875-1.886718 0 0-.003906-.003906-.003906-.003906-4.75-19.222657-22.113281-33.472657-42.800781-33.472657-20.691407 0-38.046876 14.25-42.800782 33.472657 0 0-.003906.003906-.003906.003906-.152344.625-.292969 1.253906-.421875 1.886718-.007813.03125-.015625.066407-.019531.101563-.035156.171875-.070313.347656-.101563.523437-.007812.035157-.011719.074219-.019531.109376-.035156.183593-.066406.371093-.097656.554687-.003906.023437-.007813.046875-.011719.070313-.070313.425781-.136719.855468-.195313 1.285156-.003906.019531-.003906.039062-.007812.058594-.023438.183593-.050781.367187-.074219.550781-.003906.054687-.011719.109375-.019531.164062-.015625.15625-.039062.316407-.054688.476563-.003906.054687-.011718.109375-.015624.164062-.015626.15625-.03125.316406-.046876.472656-.007812.058594-.011718.113282-.015624.171876-.039063.421874-.070313.839843-.097657 1.261718 0 .054688-.003906.105469-.007812.15625-.007813.15625-.015625.3125-.023438.464844-.003906.074219-.003906.152344-.007812.226562-.007813.140626-.015625.277344-.019531.417969 0 .074219-.003907.148438-.007813.222657-.003906.144531-.007813.289062-.007813.4375-.003906.070312-.003906.136718-.003906.203124-.003906.210938-.007812.421876-.007812.632813 0 6.847656 1.5625 13.332031 4.347656 19.113281.078125.160156.15625.320313.234375.480469.636719 1.277344 1.328125 2.519531 2.078125 3.722656.09375.148438.1875.296875.285156.449219.285156.449219.582032.886719.882813 1.324219.101562.148437.203125.292969.304687.433593 2.046875 2.882813 4.4375 5.507813 7.101563 7.816407.800781.691406 1.625 1.359375 2.476562 1.992187.28125.214844.566407.421875.855469.625.574219.410156 1.160156.804688 1.757812 1.1875.746094.480469 1.507813.933594 2.28125 1.367188.777344.433594 1.566407.84375 2.371094 1.230468.800782.390626 1.617188.75 2.445313 1.089844 5.144531 2.101563 10.769531 3.257813 16.667969 3.257813 5.898437 0 11.523437-1.15625 16.664062-3.257813.832031-.335937 1.648438-.699218 2.453125-1.089844.800781-.386718 1.589844-.796874 2.367187-1.230468.773438-.433594 1.535157-.886719 2.28125-1.367188.59375-.382812 1.183594-.777344 1.757813-1.1875.289063-.203125.574219-.414062.859375-.625.847656-.632812 1.671875-1.300781 2.472656-1.992187 2.664063-2.308594 5.054688-4.933594 7.101563-7.816407.101562-.140624.203125-.285156.304687-.433593.300782-.433594.597656-.875.882813-1.324219.097656-.152344.191406-.296875.285156-.449219.75-1.203125 1.445313-2.445312 2.078125-3.722656.078125-.160156.15625-.320313.234375-.480469 2.78125-5.78125 4.34375-12.265625 4.34375-19.113281zm0 0"/><path d="m151.910156 199.871094c-.003906.003906-.003906.011718-.007812.019531-.101563.414063-.199219.832031-.289063 1.253906 0 .011719-.003906.023438-.007812.035157-.042969.191406-.082031.386718-.121094.582031-.007813.03125-.011719.0625-.019531.097656-.03125.175781-.070313.351563-.101563.53125-.003906.035156-.011719.070313-.019531.105469-.035156.1875-.066406.375-.101562.5625-.003907.019531-.007813.042968-.011719.0625-.070313.425781-.132813.847656-.195313 1.273437-.003906.039063-.007812.070313-.011718.109375-.023438.171875-.046876.339844-.066407.511719-.007812.054687-.015625.113281-.019531.167969-.019531.152344-.039062.304687-.054688.457031-.007812.066406-.011718.132813-.019531.195313-.015625.148437-.027343.300781-.046875.453124-.003906.0625-.011718.117188-.015625.179688-.015625.195312-.03125.390625-.046875.585938-.003906.015624-.003906.027343-.007812.042968-.015625.207032-.027344.414063-.039063.621094-.003906.066406-.007812.132812-.011719.203125-.007812.136719-.015624.277344-.023437.417969-.003906.085937-.007813.171875-.011719.253906-.007812.125-.011718.253906-.015625.378906 0 .085938-.003906.171875-.007812.253906-.003907.132813-.003907.265626-.007813.398438-.003906.082031-.003906.160156-.003906.242188-.003906.175781-.003906.347656-.003906.523437v.097656c0 6.46875 1.390625 12.609375 3.894531 18.144531.074219.160157.144531.324219.222656.484376.679688 1.457031 1.4375 2.867187 2.265625 4.230468.089844.152344.183594.300782.277344.453125 1.3125 2.101563 2.796875 4.089844 4.4375 5.933594.117188.132813.234375.265625.351562.394531.476563.523438.960938 1.03125 1.460938 1.53125.375.375.753906.742188 1.144531 1.105469.515625.476563 1.042969.945313 1.582031 1.402344.804688.683593 1.640626 1.339843 2.496094 1.964843.429688.3125.863282.617188 1.300782.914063.148437.097656.296874.195313.441406.292969.445312.292968.894531.574218 1.351562.851562.90625.550782 1.839844 1.074219 2.789063 1.5625.476562.242188.957031.476563 1.4375.703125.324219.152344.648437.300781.976562.441407.328125.144531.660157.285156.988281.417968 1.660157.679688 3.367188 1.257813 5.121094 1.734375.351563.09375.703125.183594 1.054688.269531 3.363281.820313 6.875 1.257813 10.488281 1.257813 24.351563 0 44.089844-19.738281 44.089844-44.089844 0-.210937 0-.421875-.003907-.632812 0-.066407 0-.136719-.003906-.203125 0-.144532-.003906-.292969-.007812-.441406-.003906-.074219-.003906-.148438-.007813-.222657-.003906-.136719-.011719-.277343-.015625-.417969-.007812-.074218-.007812-.148437-.011718-.222656-.007813-.15625-.015626-.308594-.023438-.464844-.003906-.054687-.007812-.105468-.007812-.15625-.027344-.421874-.058594-.84375-.097657-1.261718-.003906-.058594-.011719-.113282-.015625-.171875-.011718-.160157-.03125-.316407-.046875-.472657-.003906-.054687-.011719-.109374-.015625-.167968-.019531-.15625-.039062-.316406-.054687-.472656-.007813-.054688-.011719-.113282-.019531-.164063-.023438-.183594-.046876-.367187-.074219-.550781 0-.019532-.003907-.039063-.007813-.0625-.058594-.429688-.125-.859375-.195312-1.285156-.003906-.019532-.007813-.042969-.011719-.0625-.03125-.1875-.0625-.375-.097656-.5625-.007813-.035157-.015625-.070313-.019531-.105469-.035157-.179688-.070313-.355469-.101563-.53125-.007813-.03125-.011719-.0625-.019531-.09375-.125-.632813-.269532-1.261719-.421875-1.886719 0-.003906 0-.003906 0-.007812-4.753907-19.222657-22.113281-33.472657-42.804688-33.472657-20.6875 0-38.046875 14.253907-42.796875 33.476563zm0 0"/><path d="m245.921875 186.453125c-.003906.007813-.011719.015625-.015625.023437-.695312 1.070313-1.347656 2.171876-1.949219 3.304688-.003906.003906-.007812.011719-.007812.015625-.242188.449219-.472657.90625-.695313 1.367187-.007812.007813-.011718.015626-.015625.023438-.222656.457031-.4375.921875-.644531 1.390625-.003906.011719-.007812.019531-.015625.027344-.203125.460937-.402344.929687-.59375 1.402343-.007813.015626-.015625.035157-.023437.054688-.1875.46875-.367188.941406-.539063 1.417969-.007813.011719-.011719.03125-.019531.046875-.082032.230468-.164063.460937-.242188.691406-.003906.007812-.007812.019531-.011718.027344-.082032.242187-.160157.484375-.238282.726562-.003906.011719-.007812.027344-.011718.039063-.074219.230469-.144532.460937-.214844.695312-.003906.015625-.011719.03125-.015625.046875-.074219.242188-.144531.488282-.214844.734375 0 .007813-.003906.019531-.003906.027344-.066407.226563-.128907.457031-.1875.6875-.011719.035156-.019531.070313-.03125.105469-.046875.183594-.09375.375-.140625.558594v.011718c-.070313.285156-.140625.574219-.207032.863282-.007812.042968-.019531.085937-.027343.128906-.066407.292968-.128907.59375-.191407.890625-.003906.03125-.011718.0625-.015624.09375-.03125.152343-.058594.300781-.085938.449219-.007812.042968-.015625.082031-.023438.121093-.003906.023438-.007812.046875-.011718.066407-.035156.1875-.066406.375-.097656.5625-.003907.019531-.007813.042968-.011719.0625 0 .003906-.003907.007812-.003907.011718 0 .015625-.003906.03125-.007812.050782-.039062.242187-.078125.480468-.113281.722656-.007813.050781-.011719.101562-.019531.148437-.015626.121094-.035157.234375-.050782.351563-.003906.023437-.007812.042968-.007812.0625-.011719.070312-.019532.140625-.027344.210937-.007812.042969-.011719.085938-.015625.125-.011719.070313-.019531.140625-.027344.214844-.007812.050781-.015625.109375-.019531.164063-.015625.109374-.027344.222656-.039062.335937-.007813.046875-.011719.097656-.019532.144531-.003906.054688-.011718.105469-.015625.15625-.015625.152344-.027343.300782-.042969.453125-.003906.039063-.007812.082031-.011718.121094v.003906.007813c-.003906.023437-.003906.039062-.007813.058594-.019531.230468-.039062.464843-.054687.695312-.003906.039062-.007813.078125-.007813.117188-.011719.148437-.023437.296874-.03125.449218-.003906.050782-.007812.101563-.007812.15625 0 .007813-.003907.015625-.003907.027344-.003906.058594-.003906.113281-.007812.171875-.003906.089844-.011719.179687-.015625.269531-.003906.074219-.003906.148438-.007813.222656-.003906.078126-.007812.160157-.011718.242188v.085938c-.003906.03125-.003906.058593-.003906.089843-.003907.074219-.007813.148438-.007813.222657-.003906.113281-.007813.230468-.007813.34375 0 .050781-.003906.101562-.003906.152343v.007813.015625c0 .042969-.003906.082031-.003906.121093v.171876c-.003906.152343-.003906.304687-.003906.460937 0 .203125.003906.410156.003906.613281v.019532.011718c.003906.066406.003906.136719.003906.203125.003906.136719.007813.277344.011719.414063v.003906.003906c0 .074219.003906.152344.007813.226563.003906.136719.011718.273437.015624.40625.003907.074219.007813.152343.011719.226562v.007813c.003907.140625.011719.277344.019531.417968.003907.070313.007813.140626.011719.207032.027344.414062.058594.824218.09375 1.234375 0 .003906.003907.011719.003907.023437v.003906c.003906.058594.011718.117188.015624.175782.015626.140625.027344.28125.042969.425781v.011719c0 .003906 0 .003906.003907.007812.003906.0625.011718.121094.019531.179688v.011718.011719c.015625.132813.03125.265625.046875.398438.003906.003906.003906.011719.003906.015625v.015625c.007812.0625.015625.125.023438.1875.015624.128906.035156.257812.050781.386719.003906.015624.003906.03125.007812.046874l.007813.050782c.003906.042968.007812.085937.015625.125v.015625.007812c.027343.183594.054687.371094.082031.554688 0 .007812 0 .015625.003906.027343v.003907c.03125.214843.066406.429687.101563.640625.007812.039062.011719.074218.019531.109375.027344.167969.054688.332031.085938.496093.011718.0625.023437.121094.035156.183594.023437.132813.050781.265625.074218.398438.003907.015625.003907.027344.007813.039062 0 .007813.003906.015625.003906.023438.007813.050781.019531.101562.03125.15625.03125.152344.0625.304687.09375.457031 0 .003906.003907.007813.003907.015625v.007812c.007812.039063.019531.082032.027343.121094.085938.410156.179688.816406.277344 1.21875.007813.027344.015625.058594.023437.085938.042969.171875.085938.34375.128907.515625.011719.039062.023437.074219.03125.113281.003906.007812.003906.011719.003906.019531.003906.007813.003906.015625.007813.023438.039062.152343.082031.308593.121093.460937.011719.039063.023438.082032.035157.121094.046874.167969.097656.339844.144531.507812.007812.027344.015625.058594.027343.085938.117188.40625.246094.8125.375 1.214844l.003907.003906c.003906.011719.007812.019531.011719.03125.058593.183594.121093.363281.183593.542969.007813.03125.019531.0625.03125.09375.054688.164062.109375.324219.167969.484375.003906.003906.003906.003906.003906.007812.003906.007813.003906.015625.007813.019532.007812.023437.015625.046874.023437.070312.003906.007812.003906.011719.007813.019531.003906.003907.003906.003907.003906.007813.058594.160156.117187.320312.175781.480468.003906.007813.007813.015626.011719.023438 0 .007812.003906.011719.003906.015625.007813.015625.011719.03125.015625.042969v.003906s.003906.003906.003906.003906c.046876.128906.097657.257813.148438.386719.007812.027344.019531.050781.03125.082031.046875.121094.09375.242188.144531.363282.011719.03125.019531.058593.03125.085937.050781.125.105469.253906.15625.378906.003907.019531.011719.035157.019531.050781.058594.132813.113282.265626.171876.398438.003906.015625.011718.03125.015624.042969.003907.007812.007813.015625.011719.023437.070313.164063.140625.328125.210938.488282.003906.007812.007812.011718.011719.019531l.003906.011719c.007812.019531.015625.035156.023437.054687.082031.183594.164063.363281.25.546875l.003907.007812c.066406.144532.136718.285157.199218.425782.003906.007812.007813.011718.007813.019531.066406.136719.132812.273437.199219.40625.003906.011719.007812.019531.011718.027344.136719.277343.277344.554687.417969.832031.003906.003906.003906.007812.003906.011719 7.328125 14.179687 22.128907 23.875 39.191407 23.875 3.617187 0 7.128906-.433594 10.492187-1.257813.351563-.085937.707031-.175781 1.054687-.269531 1.753907-.476563 3.460938-1.054687 5.121094-1.734375.332032-.132812.660156-.273438.988282-.417969.328124-.140625.65625-.289062.976562-.441406.488281-.226563.964844-.460937 1.441406-.707031.949219-.484375 1.882813-1.007813 2.789063-1.558594.453125-.277344.902343-.558594 1.347656-.851562.148437-.097657.296875-.195313.441406-.292969.441407-.300781.875-.601563 1.304688-.914063.855469-.625 1.6875-1.28125 2.496093-1.964844.539063-.457031 1.066407-.925781 1.585938-1.402343.386719-.363281.765625-.730469 1.140625-1.105469.496094-.496094.984375-1.007812 1.460937-1.53125.117188-.128906.234376-.261719.351563-.394531 1.640625-1.84375 3.125-3.832031 4.4375-5.933594.097656-.152344.1875-.304687.28125-.453125.683594-1.125 1.320313-2.285156 1.902344-3.476562.007812-.019532.015625-.039063.027343-.058594.0625-.125.121094-.257813.183594-.382813.007813-.015625.011719-.023437.015625-.035156.046875-.09375.089844-.183594.132813-.277344.019531-.042969.039062-.082031.058594-.125 0-.003906.003906-.003906.003906-.007812 0-.003907.003906-.003907.003906-.007813s0-.003906 0-.007812c.050781-.109375.105469-.226563.15625-.339844.03125-.066406.058594-.136719.089844-.203125l.007812-.011719c.003906-.015625.011719-.027344.019532-.042968l.007812-.015626c0-.003906 0-.003906.003906-.007812.074219-.171875.152344-.347656.226563-.523438.003906-.011718.011719-.019531.015625-.03125.058594-.136718.113281-.269531.171875-.40625.003906-.019531.011719-.035156.019531-.054687.054688-.125.105469-.25.15625-.375.011719-.027344.023438-.058594.035156-.085937.046875-.128907.101563-.253907.148438-.382813.007812-.011719.011718-.027344.019531-.039063.050781-.140624.109375-.285156.160156-.425781.003907-.007812.007813-.015625.011719-.027343.003906-.007813.003906-.015626.007812-.023438.003907-.007812.007813-.019531.011719-.027344.058594-.160156.117188-.316406.175781-.476562 0-.003906 0-.007813.003907-.011719.003906-.007813.007812-.019531.011719-.03125l.011718-.039063c.003906-.011718.011719-.023437.015625-.035156 0-.003906 0-.007812.003907-.011718.058593-.164063.117187-.332032.175781-.5.003906-.023438.011719-.042969.019531-.0625 0-.003907.003906-.003907.003906-.007813.203125-.59375.394532-1.195313.570313-1.800781 0 0 0 0 .003906-.003906v-.007813c.007813-.015625.011719-.03125.015625-.050781.050781-.175782.101562-.351563.152344-.53125.011718-.039063.019531-.078125.03125-.117188.042968-.160156.085937-.320312.128906-.480468 0 0 .003906-.003907.003906-.003907 0-.007812.003906-.015625.003906-.023437.007813-.03125.015626-.0625.027344-.097656.042969-.167969.085938-.339844.128906-.511719.003907-.011719.007813-.019531.007813-.03125.007813-.019531.011719-.042969.015625-.066407.003906-.003906.003906-.003906.003906-.007812.097656-.402344.191406-.808594.28125-1.214844.007813-.042968.019532-.09375.027344-.136718.035156-.160157.066406-.316407.097656-.472657.011719-.050781.019532-.097656.027344-.144531.003906-.007812.003906-.015625.007812-.023438 0-.007812 0-.011718.003907-.019531.027343-.144531.054687-.289062.082031-.433593 0 0 0 0 0-.003907 0-.003906 0-.003906.003906-.003906.007813-.046875.015625-.097656.027344-.148437 0 0 0 0 0-.003907.027344-.171875.058594-.339843.089844-.511719.003906-.035156.011718-.066406.015625-.101562.039062-.210938.070312-.425781.101562-.640625 0 0 0-.003906 0-.007813.003907-.007812.003907-.015624.003907-.027343.03125-.183594.054687-.367188.082031-.550781 0-.003907 0-.007813 0-.007813 0-.003906 0-.011719 0-.015625.007812-.046875.015625-.097656.023437-.148438 0-.007812 0-.019531.003906-.03125 0-.007812 0-.011718 0-.019531.019532-.136719.035157-.273437.054688-.410156.007812-.070313.015625-.136719.023438-.207031.019531-.140625.035156-.28125.046874-.425782.007813-.0625.015626-.128906.023438-.195312 0 0 0-.003906 0-.007812 0-.003907 0-.007813 0-.011719.015625-.140625.027344-.285157.042969-.425781.003906-.058594.011719-.117188.015625-.171876 0-.003906 0-.003906 0-.007812 0-.007812 0-.015625 0-.023438.039062-.40625.070312-.820312.09375-1.230468.003906-.070313.007812-.140625.011718-.210938.011719-.140625.019532-.277344.023438-.417968v-.003907-.003906c.003906-.074219.007812-.152344.011719-.226563.003906-.136718.007812-.269531.015625-.40625 0-.074218.003906-.152343.007812-.222656 0-.003906 0-.003906 0-.007812v-.003906c.003906-.136719.003906-.273438.007813-.414063.003906-.066406.003906-.132813.003906-.203125 0-.003906 0-.003906 0-.007812 0-.007813 0-.015626 0-.019532.003906-.207031.003906-.410156.003906-.617187 0-.160157 0-.320313 0-.476563 0-.050781-.003906-.097656-.003906-.144531 0-.042969 0-.085937 0-.128906 0-.007813 0-.011719 0-.015625s0-.007813 0-.011719c-.003906-.054687-.003906-.109375-.003906-.164063-.003907-.105468-.003907-.210937-.007813-.316406-.003906-.085937-.007812-.171875-.007812-.253906 0-.015625-.003906-.027344-.003906-.042969 0-.042969 0-.082031-.003907-.125 0-.074219-.003906-.144531-.007812-.214843-.003907-.085938-.007813-.171876-.011719-.257813-.003906-.078125-.007812-.160156-.011719-.238281-.003906-.066406-.011719-.128906-.011719-.195313-.003906-.058593-.007812-.121093-.011718-.183593-.007813-.140626-.015625-.277344-.027344-.414063-.003906-.050781-.003906-.097656-.007812-.148437-.003907-.019532-.003907-.039063-.003907-.058594-.003906-.015625-.003906-.027344-.003906-.042969-.015625-.195313-.035156-.390625-.050781-.585937-.003906-.015626-.003906-.035157-.003906-.050782 0-.007812 0-.011718-.003907-.015625 0-.003906 0-.003906 0-.007812-.003906-.042969-.007812-.09375-.011719-.140625-.015624-.136719-.027343-.277344-.042968-.417969-.007813-.054687-.011719-.109375-.019532-.167969-.003906-.050781-.011718-.101562-.015624-.15625-.011719-.109375-.027344-.21875-.039063-.324218-.007813-.058594-.015625-.113282-.019531-.167969-.007813-.070313-.015625-.136719-.027344-.207031-.003906-.050782-.011719-.101563-.019531-.15625-.003907-.050782-.011719-.101563-.019531-.15625-.007813-.035157-.011719-.066407-.015626-.105469-.015624-.105469-.03125-.214844-.042968-.324219-.007813-.054688-.015625-.113281-.027344-.175781-.035156-.234375-.070312-.472657-.113281-.703125-.003907-.023438-.007813-.046875-.011719-.070313 0-.003906 0-.003906 0-.003906-.003906-.019531-.003906-.039063-.007812-.058594-.03125-.1875-.066407-.375-.101563-.5625-.003906-.019531-.003906-.039062-.007813-.058593-.011718-.046876-.019531-.09375-.027343-.140626-.027344-.144531-.054688-.292968-.085938-.4375-.003906-.03125-.011719-.066406-.019531-.097656-.011719-.054687-.019531-.113281-.03125-.167968v-.003907c-.03125-.136719-.058594-.273437-.085938-.410156-.003906-.011719-.003906-.023437-.011718-.035156-.015625-.085938-.035156-.171875-.054688-.257813-.011718-.050781-.023437-.101562-.035156-.152344-.050781-.230468-.101562-.453124-.15625-.679687-.003906-.007813-.003906-.015625-.007812-.023437-.011719-.046876-.023438-.09375-.03125-.140626-.003907-.003906-.003907-.011718-.007813-.019531-.046875-.183593-.089844-.367187-.140625-.550781-.011719-.042969-.019531-.085938-.03125-.125-.058594-.21875-.117188-.4375-.179688-.652344-.003906-.019531-.007812-.039062-.015624-.058594-.066407-.238281-.136719-.476562-.207032-.714843-.007812-.023438-.015625-.050781-.023437-.074219-.070313-.226562-.140625-.453125-.214844-.675781-.003906-.015625-.007813-.03125-.011719-.042969-.078125-.246094-.160156-.488281-.242187-.726562 0-.011719-.003907-.019532-.007813-.027344-.078125-.230469-.160156-.453125-.238281-.679688-.007813-.023437-.015625-.046875-.027344-.070312-.167969-.46875-.347656-.933594-.53125-1.394532-.011719-.023437-.023437-.050781-.03125-.078124-.1875-.464844-.382812-.921876-.585937-1.378907-.007813-.015625-.015625-.035156-.019532-.050781-.207031-.457031-.417968-.917969-.640624-1.367188-.007813-.015624-.011719-.035156-.019532-.046874-.226562-.457032-.457031-.90625-.691406-1.355469 0-.003907-.003906-.007813-.007812-.015625-.363282-.679688-.742188-1.347656-1.136719-2.003906-.003907-.003907-.007813-.011719-.007813-.015626-.261718-.433593-.53125-.863281-.808594-1.285156-.003906-.007812-.007812-.015625-.011718-.023437-7.867188-12.070313-21.484375-20.054688-36.96875-20.054688-15.496094.003907-29.113282 7.984375-36.980469 20.058594zm0 0"/></g><path d="m238.800781 371.472656c-13.410156 0-25.421875-6.933594-32.132812-18.542968l-97.363281-168.441407c-6.714844-11.617187-6.71875-25.496093-.011719-37.121093 6.707031-11.628907 18.722656-18.566407 32.144531-18.566407h194.722656c13.421875 0 25.4375 6.9375 32.144532 18.566407 6.710937 11.625 6.703124 25.503906-.011719 37.121093l-97.363281 168.445313c-6.707032 11.605468-18.71875 18.539062-32.128907 18.539062zm-97.363281-219.074218c-7.042969 0-10.53125 4.726562-11.703125 6.757812-1.175781 2.035156-3.523437 7.421875.003906 13.519531l97.363281 168.445313c3.519532 6.09375 9.355469 6.75 11.699219 6.75s8.175781-.65625 11.699219-6.75l97.363281-168.441406c3.523438-6.101563 1.175781-11.488282.003907-13.523438-1.175782-2.03125-4.660157-6.757812-11.707032-6.757812zm0 0" fill="#fede3a"/><path d="m336.160156 140.601562h-194.722656c-19.492188 0-31.671875 21.105469-21.914062 37.984376l97.359374 168.441406c9.746094 16.859375 34.089844 16.859375 43.835938 0l97.359375-168.441406c9.757813-16.878907-2.425781-37.984376-21.917969-37.984376zm11.703125 32.078126-97.363281 168.441406c-3.523438 6.09375-9.355469 6.75-11.699219 6.75s-8.179687-.65625-11.699219-6.75l-97.363281-168.441406c-3.527343-6.101563-1.179687-11.488282-.003906-13.519532 1.171875-2.03125 4.660156-6.761718 11.703125-6.761718h194.722656c7.046875 0 10.53125 4.730468 11.703125 6.761718 1.175781 2.035156 3.523438 7.417969 0 13.519532zm0 0" fill="#e7ad27"/><path d="m282.890625 273.046875c0 24.351563-19.742187 44.089844-44.089844 44.089844-24.351562 0-44.089843-19.738281-44.089843-44.089844 0-24.347656 19.738281-44.089844 44.089843-44.089844 24.347657 0 44.089844 19.742188 44.089844 44.089844zm0 0" fill="#1caee4"/><path d="m238.800781 295.898438c-20.6875 0-38.046875-14.25-42.804687-33.46875-.839844 3.398437-1.285156 6.957031-1.285156 10.617187 0 24.351563 19.738281 44.089844 44.089843 44.089844 24.347657 0 44.089844-19.738281 44.089844-44.089844 0-3.660156-.445313-7.21875-1.289063-10.617187-4.753906 19.21875-22.113281 33.46875-42.800781 33.46875zm0 0" fill="#009add"/><path d="m238.800781 196.488281c0 24.351563-19.742187 44.089844-44.089843 44.089844-24.351563 0-44.089844-19.738281-44.089844-44.089844 0-24.351562 19.738281-44.089843 44.089844-44.089843 24.347656 0 44.089843 19.738281 44.089843 44.089843zm0 0" fill="#ef5a9d"/><path d="m194.710938 219.339844c-20.6875 0-38.050782-14.25-42.804688-33.472656-.839844 3.402343-1.285156 6.957031-1.285156 10.621093 0 24.351563 19.738281 44.089844 44.089844 44.089844 24.347656 0 44.089843-19.738281 44.089843-44.089844 0-3.664062-.445312-7.21875-1.289062-10.621093-4.75 19.222656-22.113281 33.472656-42.800781 33.472656zm0 0" fill="#e43d91"/><path d="m326.980469 196.488281c0 24.351563-19.738281 44.089844-44.089844 44.089844s-44.089844-19.738281-44.089844-44.089844c0-24.351562 19.738281-44.089843 44.089844-44.089843s44.089844 19.738281 44.089844 44.089843zm0 0" fill="#fff"/><path d="m282.890625 219.339844c-20.6875 0-38.046875-14.25-42.800781-33.472656-.84375 3.402343-1.289063 6.957031-1.289063 10.621093 0 24.351563 19.738281 44.089844 44.089844 44.089844 24.347656 0 44.089844-19.738281 44.089844-44.089844 0-3.664062-.445313-7.21875-1.289063-10.621093-4.753906 19.222656-22.113281 33.472656-42.800781 33.472656zm0 0" fill="#d1d3d4"/><path d="m238.800781 196.488281c0 7.285157 1.765625 14.15625 4.894531 20.210938h78.386719c3.128907-6.054688 4.894531-12.925781 4.894531-20.210938 0-8.867187-2.617187-17.121093-7.121093-24.035156h-73.933594c-4.503906 6.914063-7.121094 15.167969-7.121094 24.035156zm0 0" fill="#fede3a"/><path d="m326.964844 195.476562c-.003906-.175781-.007813-.347656-.011719-.519531-.003906-.097656-.007813-.191406-.011719-.285156-.003906-.164063-.011718-.324219-.019531-.484375-.007813-.097656-.011719-.195312-.019531-.292969-.007813-.167969-.019532-.335937-.03125-.503906-.003906-.085937-.011719-.167969-.015625-.253906-.019531-.246094-.039063-.492188-.0625-.738281-.003907-.050782-.011719-.101563-.015625-.15625-.019532-.195313-.039063-.390626-.0625-.585938-.007813-.097656-.019532-.191406-.03125-.285156-.019532-.152344-.035156-.304688-.054688-.453125-.011718-.109375-.027344-.214844-.039062-.324219-.019532-.140625-.039063-.285156-.0625-.425781-.011719-.105469-.03125-.207031-.042969-.308594-.023437-.15625-.046875-.3125-.074219-.46875-.015625-.089844-.027344-.183594-.042968-.273437-.039063-.230469-.082032-.460938-.125-.6875-.015626-.097657-.035157-.191407-.050782-.289063-.03125-.144531-.058594-.289063-.085937-.4375-.023438-.105469-.046875-.214844-.070313-.324219-.027344-.132812-.054687-.261718-.082031-.390625-.023437-.113281-.050781-.222656-.078125-.335937-.027344-.132813-.0625-.269532-.09375-.402344-.023438-.101562-.046875-.207031-.074219-.308594-.003906-.023437-.011719-.046875-.015625-.070312-3.539062 14.308594-14.066406 25.859375-27.746094 30.828125h24.136719s.003907-.003907.003907-.003907c.289062-.5625.566406-1.132812.835937-1.707031.003906-.011719.007813-.023437.015625-.035156.078125-.171875.160156-.347656.238281-.523437l.03125-.070313c.078125-.175781.152344-.351563.230469-.53125.003906-.011719.007812-.023437.015625-.035156.246094-.578125.484375-1.167969.707031-1.757813.007813-.019531.015625-.042968.023438-.0625.0625-.167968.125-.339844.1875-.511718.011718-.035157.023437-.074219.035156-.109376.058594-.164062.121094-.332031.175781-.496093.011719-.03125.019531-.058594.03125-.085938.066407-.191406.128907-.386719.191407-.578125 0-.003906.003906-.003906.003906-.007812.132812-.402344.257812-.808594.378906-1.21875l.019531-.066406c.050781-.171876.097657-.347657.148438-.519532.011719-.042968.023437-.085937.035156-.132812.042969-.15625.085937-.316406.128906-.476563.011719-.042969.023438-.082031.035157-.125.046874-.179687.089843-.355469.136718-.535156.003906-.019531.007813-.042969.015625-.066406.097657-.40625.191407-.816407.28125-1.230469.007813-.039062.019531-.078125.027344-.113281.03125-.160157.066406-.324219.097656-.484375.011719-.058594.023438-.113282.035157-.171875.03125-.152344.058593-.304688.085937-.457031.007813-.050782.019531-.105469.027344-.15625.03125-.164063.058593-.332032.089843-.5.003907-.039063.011719-.078126.019532-.117188.03125-.207031.066406-.417969.097656-.625 0-.007812.003906-.011719.003906-.015625.03125-.199219.058594-.390625.082032-.585937.007812-.066407.019531-.132813.027343-.195313.019531-.148437.039063-.289063.054688-.4375.007812-.066406.015625-.128906.023437-.195313.019532-.140624.035156-.285156.050782-.429687.007812-.066406.015624-.132813.019531-.203125.015625-.15625.035156-.316406.046875-.476562.003906-.046876.011718-.09375.015625-.140626.019531-.210937.035156-.417968.050781-.628906.003906-.019531.003906-.042968.003906-.066406.015625-.1875.027344-.375.039063-.566406.003906-.058594.003906-.117188.007812-.179688.007813-.144531.015625-.296875.027344-.445312.003906-.074219.003906-.148438.007813-.222656.007812-.136719.011718-.277344.015624-.414063.003907-.078125.003907-.152344.007813-.226563.003906-.144531.007813-.292968.011719-.4375 0-.0625 0-.128906.003906-.195312 0-.210938.003906-.421875.003906-.632812 0-.257813-.003906-.511719-.007812-.765626.003906-.085937.003906-.167968 0-.25zm0 0" fill="#e7ad27"/><path d="m238.808594 197.316406c0 .148438.003906.292969.007812.4375.003906.074219.003906.152344.007813.226563.003906.140625.011719.277343.019531.414062 0 .074219.003906.148438.007812.222657.007813.148437.015626.296874.023438.445312.003906.0625.007812.121094.011719.179688.011719.191406.023437.378906.039062.566406 0 .023437 0 .046875.003907.066406.015624.210938.03125.421875.050781.628906.003906.046875.007812.09375.011719.140625.015624.160157.03125.320313.046874.476563.007813.070312.015626.136718.023438.203125.015625.144531.03125.289062.046875.429687.007813.066406.015625.132813.023437.195313.019532.148437.039063.292969.058594.4375.007813.0625.015625.128906.023438.191406.027344.199219.058594.390625.085937.585937v.019532c.035157.207031.066407.417968.101563.625.003906.039062.011718.078125.019531.117187.027344.167969.058594.335938.089844.5.007812.050781.015625.105469.027343.15625.027344.152344.058594.304688.085938.457031.011719.058594.023438.113282.03125.171876.035156.164062.066406.324218.101562.484374.007813.035157.015626.074219.023438.113282.089844.414062.183594.828125.285156 1.242187.003906.003907.003906.007813.003906.011719.046876.195312.09375.386719.144532.578125.011718.042969.023437.082031.03125.125.042968.160156.089844.320313.132812.476563.011719.046874.023438.085937.035156.132812.046876.171875.097657.34375.148438.519531l.019531.066407c.121094.410156.246094.816406.378907 1.21875v.007812c.066406.191406.128906.382812.195312.578125.007812.027344.019531.054687.03125.085937.054688.164063.113281.332032.171875.496094.015625.035156.027344.074219.039063.109375.0625.171875.125.34375.1875.511719.007812.019531.015624.042969.023437.0625.222656.589844.457031 1.179688.707031 1.757812.003906.011719.007813.023438.015625.035157.074219.179687.152344.355469.230469.53125l.03125.070312c.078125.175781.160156.351563.238281.523438.007813.011719.011719.023437.015625.035156.265625.574219.546875 1.144531.835938 1.707031 0 0 .003906.003906.003906.003906h24.136719c-13.683594-4.96875-24.207031-16.523437-27.746094-30.828124-.007813.023437-.011719.046874-.019531.070312-.023438.101562-.046875.203125-.074219.308594-.03125.132812-.0625.269531-.09375.402344-.023437.113281-.046875.222656-.074219.335937-.027344.128906-.054687.261719-.085937.390625-.019531.109375-.042969.21875-.066407.324219-.03125.148437-.058593.292969-.085937.4375-.019531.097656-.039063.191406-.054687.289062-.042969.226563-.082032.457031-.121094.6875-.015625.09375-.03125.183594-.042969.273438-.023437.15625-.050781.3125-.074219.46875-.015625.101562-.03125.203125-.046875.308593-.019531.140626-.039062.285157-.058593.425782-.015626.109375-.027344.214844-.042969.324218-.015625.148438-.035157.300782-.050781.453126-.011719.09375-.023438.191406-.035157.285156-.019531.195312-.039062.390625-.058593.585937-.007813.054688-.011719.105469-.015626.15625-.023437.246094-.042968.492188-.0625.738281-.007812.082032-.011718.167969-.019531.253907-.011719.167969-.019531.335937-.03125.503906-.003906.097656-.007812.195313-.015625.292969-.007812.160156-.015625.320312-.023437.480468-.003907.097657-.007813.191407-.007813.289063-.007812.171875-.011718.34375-.015625.519531 0 .082032-.003906.164063-.003906.242188-.003906.257812-.007813.511718-.007813.765625 0 .214843.003907.425781.003907.636719.011719.070312.015625.136718.015625.199218zm0 0" fill="#e7ad27"/><path d="m287.027344 177.089844c-9.671875-2.285156-19.363282 3.703125-21.644532 13.375-2.285156 9.671875 3.703126 19.363281 13.375 21.648437 9.671876 2.28125 19.363282-3.707031 21.648438-13.378906 2.28125-9.667969-3.707031-19.363281-13.378906-21.644531zm0 0" fill="#fff"/><path d="m242.933594 255.5625c-9.671875-2.28125-19.363282 3.707031-21.648438 13.378906-2.28125 9.671875 3.707032 19.363282 13.378906 21.644532 9.671876 2.285156 19.363282-3.703126 21.644532-13.375 2.285156-9.671876-3.703125-19.363282-13.375-21.648438zm0 0" fill="#fff"/><path d="m211.367188 196.488281c0 9.9375-8.058594 17.992188-17.996094 17.992188s-17.992188-8.054688-17.992188-17.992188 8.054688-17.996093 17.992188-17.996093 17.996094 8.058593 17.996094 17.996093zm0 0" fill="#fff"/></svg>