<svg height="477.60001pt" viewBox="0 0 477.60001 477.60001" width="477.60001pt" xmlns="http://www.w3.org/2000/svg"><path d="m477.601562 238.800781c0 131.886719-106.914062 238.800781-238.800781 238.800781s-238.800781-106.914062-238.800781-238.800781 106.914062-238.800781 238.800781-238.800781 238.800781 106.914062 238.800781 238.800781zm0 0" fill="#382b73"/><path d="m445.398438 238.800781c0 114.101563-92.496094 206.597657-206.597657 206.597657-114.101562 0-206.597656-92.496094-206.597656-206.597657 0-114.101562 92.496094-206.597656 206.597656-206.597656 114.101563 0 206.597657 92.496094 206.597657 206.597656zm0 0" fill="#473080"/><path d="m355.5 286.734375c.03125-.109375.0625-.214844.09375-.324219l.003906-.015625c.027344-.101562.054688-.199219.082032-.300781.003906-.015625.003906-.027344.007812-.039062.023438-.09375.050781-.1875.074219-.28125.003906-.019532.007812-.039063.011719-.054688.023437-.09375.046874-.1875.070312-.28125.003906-.015625.007812-.035156.011719-.050781.019531-.09375.039062-.183594.0625-.277344.003906-.019531.007812-.039063.015625-.058594.019531-.089843.039062-.179687.054687-.269531.003907-.019531.011719-.042969.015625-.066406.070313-.335938.132813-.671875.1875-1.011719v-.003906c.019532-.109375.035156-.226563.054688-.339844v-.011719c.019531-.105468.03125-.207031.046875-.308594.003906-.035156.007812-.074218.011719-.109374.011718-.078126.019531-.15625.03125-.234376.003906-.035156.007812-.070312.015624-.105468.007813-.074219.015626-.152344.023438-.230469.007812-.042969.011719-.082031.015625-.125.003906-.070313.011719-.136719.019531-.203125.003906-.050781.011719-.097656.015625-.148438.003907-.066406.011719-.136718.015625-.203124.003906-.042969.007813-.085938.011719-.128907.003906-.074219.011719-.144531.015625-.21875.003906-.042969.003906-.085937.007812-.125.003907-.074219.007813-.148437.011719-.222656.003907-.039063.007813-.082031.007813-.125.007812-.070313.011718-.140625.011718-.210937.003907-.046876.003907-.09375.007813-.140626 0-.066406.003906-.132812.007813-.203124 0-.046876.003906-.09375.003906-.144532 0-.074218.003906-.15625.003906-.234375 0-.035156 0-.070312 0-.105469.003906-.117187.003906-.230468.003906-.351562 0-.113281 0-.230469-.003906-.347656 0-.035156 0-.074219 0-.105469 0-.011719 0-.019531 0-.03125 0-.03125 0-.058594-.003906-.09375 0-.035156 0-.074219 0-.113281-.003906-.046875-.003906-.09375-.003906-.144532-.003907-.066406-.003907-.132812-.007813-.199218 0-.011719 0-.023438 0-.03125 0-.003906 0-.003906 0-.007813-.003906-.035156-.003906-.070312-.003906-.101562-.003907-.070313-.007813-.144531-.011719-.214844-.003906-.039063-.003906-.082031-.007812-.125 0-.015625-.003907-.03125-.003907-.046875 0-.019531 0-.039062-.003906-.058594 0-.039062-.003906-.078125-.007813-.117187 0-.039063-.003906-.082031-.007812-.121094-.003906-.074219-.007812-.148437-.015625-.222656 0-.011719 0-.023438 0-.039063 0-.003906-.003906-.007812-.003906-.015625 0-.023437-.003907-.046875-.003907-.070312-.007812-.070313-.011718-.140625-.019531-.207031-.003906-.046876-.011719-.097657-.015625-.148438 0-.03125-.003906-.058594-.007812-.09375 0-.007812 0-.015625 0-.023438-.003906-.027343-.007813-.054687-.007813-.082031-.003906-.042969-.007812-.085937-.015625-.128906-.007812-.074219-.015625-.148437-.023437-.222656-.003907-.039063-.007813-.074219-.015625-.113281-.011719-.078126-.019532-.15625-.03125-.230469-.003906-.039063-.007813-.070313-.011719-.109375-.007813-.039063-.011719-.082032-.019531-.121094 0-.011719-.003906-.027344-.003906-.039062-.007813-.050782-.015626-.101563-.023438-.148438 0-.003906-.003906-.007812-.003906-.011719-.015625-.113281-.035156-.226562-.050782-.339843 0-.003907 0-.003907 0-.003907-.03125-.164062-.058593-.328125-.085937-.492187-.003906-.007813-.003906-.011719-.003906-.019532-.035157-.167968-.066407-.335937-.097657-.5-.003906-.023437-.011718-.042968-.015624-.066406-.019532-.089844-.039063-.179687-.058594-.273437-.003906-.015625-.007813-.035157-.011719-.050781-.019531-.097657-.042969-.191407-.0625-.285157-.003906-.011719-.007813-.027343-.011719-.042969-.023437-.097656-.046875-.195312-.070312-.289062-.003906-.015625-.007813-.03125-.007813-.042969-.027343-.101562-.050781-.195312-.074219-.292969-.003906-.011718-.007812-.019531-.007812-.03125-.03125-.105468-.054688-.207031-.085938-.308593l-.003906-.015625c-3.035156-10.894532-13.027344-18.890625-24.890625-18.890625-11.859375 0-21.855469 7.996093-24.890625 18.890625l-.003906.015625c-.027344.101562-.054688.203125-.082031.308593-.003907.007813-.007813.019532-.007813.03125-.027344.101563-.054687.207032-.082031.3125v.007813c-.027344.109375-.054687.21875-.082031.328125v.007812c-.027344.105469-.050782.21875-.074219.324219 0 .003907-.003906.007813-.003906.011719-.023438.109375-.046875.21875-.070313.324219v.015625c-.035156.167968-.066406.339844-.101562.511718 0 .003907 0 .011719-.003906.015626-.027344.164062-.058594.328124-.085938.492187v.003906c-.015625.117188-.035156.226563-.054688.339844v.015625c-.007812.046875-.015624.097656-.023437.148438 0 .011718-.003906.027343-.003906.039062-.007813.042969-.011719.089844-.019531.132812-.003907.023438-.003907.042969-.007813.066407-.011719.085937-.023437.175781-.035156.261719-.003907.039062-.007813.074218-.011719.113281-.011719.074219-.019531.152343-.027344.222656-.003906.042969-.007812.085937-.011718.128906-.003907.027344-.007813.054688-.011719.082031v.023438c-.003907.035156-.007813.0625-.011719.09375-.003906.050781-.011719.101562-.015625.148438-.003906.070312-.011719.136718-.015625.207031-.003906.023437-.003906.046875-.007812.070312v.015625.039063c-.007813.074219-.011719.148437-.015626.222656-.003906.039063-.007812.082031-.007812.121094-.003906.039062-.007812.078125-.007812.117187-.003907.019532-.003907.039063-.003907.058594-.003906.015625-.003906.03125-.003906.046875-.003906.042969-.007813.085937-.011719.125-.003906.070313-.003906.140625-.007812.214844-.003906.03125-.003906.070312-.007813.101562v.007813.03125c0 .066406-.003906.132812-.003906.199218-.003906.050782-.003906.097657-.003906.144532-.003907.039062-.003907.078125-.003907.113281v.09375.03125c0 .035156-.003906.070313-.003906.105469v.347656.351562c0 .035157.003906.070313.003906.105469 0 .078125 0 .160157.003907.234375.003906.050782.003906.097656.003906.144532.003906.070312.003906.136718.007813.203124 0 .046876.003906.09375.003906.140626.003906.070312.007812.140624.011718.210937 0 .042969.003907.085937.007813.125.003906.074219.007813.148437.015625.222656 0 .039063.003906.082031.007812.125.003907.070313.007813.144531.015626.21875.003906.042969.007812.085938.007812.128907.007812.066406.011719.136718.019531.203124.003907.050782.007813.097657.015625.148438.003906.070312.011719.132812.019532.203125.003906.042969.007812.082031.011718.125.007813.078125.019532.152344.027344.230469.003906.035156.007812.070312.011719.105468.011719.089844.023437.175782.035156.265626.003906.019531.007813.046874.011719.066406.011718.109375.027344.214844.042968.324218 0 .003907 0 .007813.003907.011719.015625.113281.035156.226563.054687.339844v.003906c.054688.34375.121094.683594.1875 1.019531 0 .003907.003906.007813.003906.011719.023438.113281.046876.21875.070313.328125 0 .003906 0 .007813.003906.011719.023438.109375.046875.214844.074219.320313 0 .007812 0 .011718.003906.015624.027344.109376.050782.214844.078125.320313 0 .003906.003907.011719.003907.019531.027343.101563.050781.199219.078124.300782.003907.011718.003907.023437.007813.039062.03125.101562.054687.203125.082031.304688l.003906.015624c3.035157 10.894532 13.03125 18.890626 24.890626 18.890626 11.734374-.003907 21.648437-7.839844 24.789062-18.570313zm0 0" fill="#382b73"/><path d="m249.382812 398.800781h-1.582031v-75.292969c11.539063-12.144531 40.878907-45.097656 57.683594-82.542968l-.03125-.011719c7.722656-14.425781 12.199219-31.515625 12.199219-49.820313 0-51.460937-35.371094-93.332031-78.851563-93.332031s-78.851562 41.871094-78.851562 93.332031c0 18.300782 4.472656 35.390626 12.191406 49.8125l-.03125.011719c16.808594 37.445313 46.152344 70.402344 57.691406 82.546875v75.296875h-1.582031c-1.105469 0-2 .894531-2 2v3.5c0 1.101563.894531 2 2 2h21.164062c1.105469 0 2-.898437 2-2v-3.5c0-1.105469-.894531-2-2-2zm-17.023437-90.273437c-.113281-.121094-.222656-.246094-.332031-.371094-.011719-.015625-.027344-.03125-.042969-.042969-.71875-.808593-1.46875-1.65625-2.242187-2.539062-.011719-.011719-.019532-.023438-.03125-.035157-.140626-.15625-.273438-.316406-.414063-.472656-.027344-.027344-.050781-.058594-.078125-.085937-.441406-.507813-.894531-1.027344-1.347656-1.554688-.023438-.03125-.050782-.054687-.074219-.082031-.3125-.363281-.625-.730469-.945313-1.105469-.03125-.03125-.058593-.0625-.085937-.097656-.136719-.160156-.269531-.320313-.40625-.476563-.039063-.042968-.070313-.085937-.105469-.125-.121094-.140624-.238281-.28125-.359375-.421874-.046875-.054688-.09375-.109376-.140625-.164063-.152344-.179687-.300781-.359375-.457031-.539063-.003906-.003906-.003906-.007812-.007813-.011718-.34375-.402344-.6875-.8125-1.035156-1.226563-.007812-.003906-.007812-.011719-.011718-.015625-.171876-.203125-.34375-.40625-.515626-.617187-.003906 0-.003906-.003907-.007812-.007813-.167969-.203125-.339844-.410156-.511719-.617187-.011719-.011719-.019531-.023438-.027343-.035157-.167969-.195312-.332032-.398437-.496094-.597656l-.035156-.042968c-.703126-.851563-1.417969-1.722657-2.136719-2.613282-.023438-.023437-.042969-.050781-.066407-.078125-.152343-.1875-.304687-.375-.457031-.566406l-.101562-.121094c-2.011719-2.492187-4.082031-5.125-6.183594-7.882812l-.015625-.023438c-.179688-.234375-.359375-.46875-.539062-.703125-.019532-.027344-.039063-.050781-.054688-.074218-.953125-1.253907-1.90625-2.53125-2.867188-3.832032-.019531-.03125-.039062-.054687-.058593-.082031-.183594-.25-.363281-.496094-.546875-.746094 0 0-.003906-.003906-.003906-.007812-.972657-1.328125-1.945313-2.675781-2.917969-4.046875-.007813-.015625-.019531-.027344-.027344-.042969-.023437-.03125-.046875-.0625-.066406-.09375 9.832031 5.230469 20.730469 8.140625 32.191406 8.140625 11.457031 0 22.347656-2.910156 32.179687-8.132812-4.324218 6.101562-8.664062 11.777343-12.761718 16.878906-.007813.011718-.015625.019531-.027344.03125-.167969.214844-.339844.425781-.511719.636718-.019531.023438-.039062.046876-.054687.070313-1.082032 1.335937-2.140625 2.632813-3.179688 3.882813-.035156.039062-.070312.082031-.101562.121093-.160156.191407-.320313.386719-.480469.574219 0 .003906 0 .003906-.003906.003906-.695313.835938-1.378907 1.648438-2.050781 2.441406-.023438.027344-.042969.050782-.066407.078126-.132812.15625-.265625.308593-.394531.464843-.050781.058594-.101562.117188-.152344.179688-.101562.117187-.207031.238281-.308594.359375-.058593.066406-.117187.132812-.171874.203125-.144532.167969-.289063.335937-.433594.503906-.003906.003906-.007813.007813-.011719.011719-.15625.183594-.316406.367187-.472656.546875-.027344.035156-.054688.066406-.082031.101562-.300782.34375-.59375.6875-.890626 1.023438-.015624.019531-.03125.039062-.046874.058593-.136719.15625-.273438.3125-.410157.46875-.023437.03125-.050781.058594-.074219.085938-.128906.148438-.253906.292969-.382812.4375-.027344.03125-.050781.058594-.082031.089844-.128907.148437-.257813.292968-.382813.441406-.023437.023438-.046875.050781-.070312.078125-.058594.070313-.117188.132813-.179688.203125-.207031.234375-.414062.46875-.617187.699219-.003907.003906-.007813.007812-.011719.015625-.097656.105468-.191406.214844-.285156.320312-.050782.058594-.101563.113282-.152344.171875-.082031.089844-.160156.179688-.242188.269531-.058593.0625-.113281.128907-.171874.191407-.070313.082031-.144532.164062-.214844.246093-.066406.078126-.136719.152344-.207032.230469-.070312.078125-.140624.160157-.214843.238281-.039063.042969-.082031.089844-.121094.132813-.078125.09375-.160156.179687-.238281.269531-3.167969 3.519532-8.691406 3.519532-11.855469-.003906-.132813-.144531-.261719-.292969-.394531-.441406-.027344-.039063-.070313-.082032-.105469-.125zm-37.160156-55.789063c.03125.035157.0625.066407.09375.097657-.1875-.195313-.371094-.390626-.558594-.589844.082031.089844.167969.179687.253906.269531.070313.074219.140625.148437.210938.222656zm.503906.519531c.082031.085938.160156.167969.242187.253907.027344.027343.058594.054687.085938.085937-.195312-.199218-.386719-.394531-.578125-.59375.082031.085938.164063.167969.25.253906zm.929687-125.191406c.230469-.226562.460938-.453125.691407-.679687-.0625.0625-.125.128906-.191407.1875-.140624.136719-.277343.273437-.417968.410156-.027344.03125-.058594.054687-.082032.082031zm-.234374.234375c-.082032.082031-.164063.164063-.25.246094.140624-.140625.28125-.277344.421874-.417969-.058593.058594-.113281.113282-.171874.171875zm84.492187-.308593c-.011719-.015626-.027344-.027344-.039063-.042969h-.003906c-.128906-.128907-.257812-.253907-.386718-.378907-.0625-.058593-.125-.121093-.1875-.183593.234374.226562.464843.453125.695312.679687-.023438-.023437-.050781-.046875-.078125-.074218zm.140625.136718c.140625.140625.277344.28125.417969.421875-.082031-.085937-.167969-.167969-.253907-.253906-.054687-.058594-.109374-.113281-.164062-.167969zm-.132812 126.140625c.027343-.027343.054687-.054687.078124-.078125-.234374.234375-.472656.464844-.710937.699219.0625-.066406.128906-.128906.195313-.195313.144531-.140624.292968-.285156.4375-.425781zm1-1.011719c.082031-.085937.164062-.167968.246093-.253906-.191406.199219-.382812.394532-.578125.589844.03125-.027344.058594-.058594.085938-.085938.082031-.082031.164062-.164062.246094-.25zm.714843-.742187c.082031-.089844.167969-.179687.253907-.273437-.183594.199218-.371094.394531-.558594.59375.03125-.035157.0625-.066407.09375-.097657.066406-.074219.136718-.148437.210937-.222656zm-84.742187 2.878906c.121094.121094.25.238281.371094.351563.046874.042968.089843.085937.132812.125-.34375-.316406-.683594-.640625-1.023438-.96875.035157.039062.078126.074218.113282.113281.136718.125.269531.253906.40625.378906zm1.148437 1.0625c.035157.03125.070313.066407.105469.097657-.242188-.21875-.488281-.441407-.730469-.664063.074219.066406.148438.132813.222657.203125.136718.121094.265624.242188.402343.363281zm79.960938-.363281c.074219-.070312.148437-.136719.222656-.203125-.242187.222656-.484375.445313-.730469.664063.039063-.03125.074219-.066407.109375-.097657.132813-.121093.265625-.242187.398438-.363281zm.75-.699219c.132812-.125.265625-.253906.402343-.378906.039063-.039063.078126-.074219.113282-.113281-.339844.328125-.679688.652344-1.023438.96875.046875-.042969.089844-.082032.132813-.125.125-.117188.25-.234375.375-.351563zm-1.320313 1.21875c-.148437.132813-.296875.269531-.449218.402344.085937-.074219.167968-.152344.25-.226563.066406-.058593.136718-.117187.199218-.175781zm-.449218.402344c-4.636719 4.089844-9.71875 7.472656-15.140626 10.019531v-9.757812h14.835938c.105469-.085938.203125-.175782.304688-.265625zm-57.261719.265625h15.140625v15.105469c-5.484375-.292969-10.796875-1.394531-15.863282-3.203125.238282.085937.480469.167968.722657.253906zm17.316406 15.179688c-.167969-.003907-.339844-.007813-.507813-.011719.167969.003906.339844.007812.507813.011719zm-.742187-.015626c-.21875-.007812-.433594-.015624-.652344-.023437.21875.011719.433594.015625.652344.023437zm-.722657-.023437c-.234375-.011719-.46875-.023437-.703125-.035156.234375.011719.46875.023437.703125.035156zm5.210938-15.140625h15.136719v12.15625c.242187-.082031.484374-.167969.726562-.253906-5.066406 1.8125-10.382812 2.910156-15.863281 3.203125zm-.007813 15.105469c-.234375.011719-.46875.023437-.707031.035156.238281-.011719.472656-.023437.707031-.035156zm-.773437.035156c-.21875.007813-.4375.015625-.65625.023437.21875-.007812.4375-.011718.65625-.023437zm-.886719.027344c-.171875.003906-.339844.007812-.507812.011719.167968-.003907.335937-.007813.507812-.011719zm22.722656-5.410157c-.230468.109376-.46875.21875-.703125.324219.234375-.105469.472657-.214843.703125-.324219zm-.738281.339844c-.234375.105469-.46875.214844-.707031.316406.238281-.105468.472656-.210937.707031-.316406zm-.722656.324219c-.238281.101563-.476563.203125-.714844.304687.238281-.101562.476563-.203124.714844-.304687zm-.742188.316406c-.234375.097657-.46875.195313-.707031.292969.238281-.097656.472656-.195312.707031-.292969zm-.75.308594c-.230469.09375-.460937.1875-.691406.277344.230469-.089844.460937-.179688.691406-.277344zm-.757812.300781c-.230469.089844-.460938.179688-.691407.265625.234376-.085937.460938-.175781.691407-.265625zm-.734375.28125c-.234375.085938-.472656.175782-.710938.261719.238282-.085937.476563-.175781.710938-.261719zm-16.609375-17.550781v-15.140625h15.136719v15.140625zm0-21.058594v-15.140625h15.136719v15.140625zm0-21.0625v-15.136719h15.136719v15.136719zm15.136719-36.199219v15.140626h-15.136719v-15.140626zm-15.136719-5.9375v-15.140624h15.136719v15.140624zm-5.921875 0h-15.140625v-15.140624h15.140625zm0 5.9375v15.140626h-15.140625v-15.140626zm26.980468 0h15.140626v15.140626h-15.140626zm0-5.9375v-15.140624h15.140626v15.140624zm-21.058593-21.0625v-15.140624h15.136719v15.140624zm-5.921875-15.140624v15.140624h-15.140625v-15.140624zm-21.058594 36.203124h-15.140625v-15.140624h15.140625zm0 5.9375v15.140626h-15.140625v-15.140626zm21.058594 21.0625v15.136719h-15.140625v-15.136719zm0 21.058594v15.140625h-15.140625v-15.140625zm0 21.058594v15.140625h-15.140625v-15.140625zm-35.898438 21.0625h14.839844v9.757812c-5.421875-2.550781-10.503906-5.933593-15.140625-10.023437.097656.085937.203125.175781.300781.265625zm19.996094 11.890625c-.238281-.085937-.476562-.175781-.710938-.261719.238282.085938.472657.175782.710938.261719zm-.753906-.277344c-.230469-.085937-.460938-.175781-.691406-.265625.230468.089844.460937.179688.691406.265625zm-.753906-.289062c-.234376-.089844-.464844-.183594-.695313-.277344.230469.097656.464844.1875.695313.277344zm-.738282-.292969c-.238281-.097656-.472656-.191406-.707031-.292969.234375.097657.472656.195313.707031.292969zm-.734375-.304688c-.238281-.101562-.476562-.203124-.710937-.304687.234375.101563.472656.203125.710937.304687zm-.730469-.3125c-.234374-.105468-.46875-.210937-.707031-.316406.238281.105469.472657.210938.707031.316406zm-.738281-.332031c-.234375-.105469-.472656-.214843-.707031-.324219.234375.109376.472656.21875.707031.324219zm-15.851562-10.351562c-.148438-.132813-.296875-.265625-.445313-.398438.066406.058594.128906.113281.195313.175781.082031.074219.167969.148438.25.222657zm81.8125-3.296875c-.140625.144531-.285157.289062-.425781.429687.050781-.054687.109374-.109375.164062-.164062.085938-.089844.175781-.175781.261719-.265625zm-3.488281-2.355469h-15.140626v-15.140625h15.140626zm-15.140626-21.058594v-15.140625h15.140626v15.140625zm0-21.0625v-15.136719h15.140626v15.136719zm42.800782-20.585937c.003906.226562.007812.453125.011718.683594-.003906-.230469-.007812-.457032-.011718-.683594zm-21.722656-.472656v-15.140626h20.085937c.917969 4.898438 1.472656 9.957032 1.625 15.140626zm19.335937-18.742188c.15625.683594.304687 1.371094.449219 2.066406-.144532-.695312-.292969-1.382812-.449219-2.066406zm.457031 2.109375c.042969.222656.089844.441406.132813.664063-.042969-.222657-.089844-.441407-.132813-.664063zm.164063.824219c.042969.222656.085937.441406.128906.664062-.042969-.21875-.085937-.441406-.128906-.664062zm-.804688-3.726563c.046875.191407.089844.378907.132813.570313-.042969-.191406-.085938-.378906-.132813-.570313zm-.15625-.644531c-.011719-.054688-.023437-.109375-.039062-.160156-.058594-.246094-.121094-.492188-.183594-.738282h-18.773437v-15.140624h13.472656c2.339844 5.160156 4.234375 10.660156 5.617187 16.421874-.03125-.128906-.058593-.257812-.09375-.382812zm-40.074219-21.960938v-15.140624h15.140626v15.140624zm17.308594-18.792968c-.019531-.015625-.039062-.035156-.0625-.054688 0-.003906-.003906-.003906-.003906-.003906-.109375-.109375-.21875-.210938-.332031-.316406-.121094-.117188-.25-.238282-.375-.351563-.011719-.011719-.027344-.027343-.042969-.042969-.015625-.015624-.03125-.03125-.046875-.046874-.011719-.011719-.027344-.023438-.039063-.035157.339844.316407.679688.636719 1.015626.960938-.039063-.035157-.078126-.070313-.113282-.109375zm-1.160156-1.085938c-.128906-.113281-.253906-.230468-.382812-.347656-.007813-.007812-.015626-.015625-.023438-.023438-.023438-.019531-.046875-.042968-.074219-.066406.230469.207032.460938.417969.691407.628906-.070313-.0625-.140626-.125-.210938-.191406zm-.773438-.699218c-.078124-.070313-.15625-.140626-.234374-.207032.144531.128906.292968.257813.433593.386719-.066406-.0625-.132812-.117187-.199219-.179687zm-.234374-.207032c-.097657-.089844-.195313-.175781-.296876-.261718.097657.085937.199219.171874.296876.257812zm-15.140626-.273437v-9.75c5.300782 2.492187 10.277344 5.78125 14.828126 9.75zm-5.921874-12.152344v12.152344h-15.136719v-15.101563c5.480469.292969 10.796875 1.394532 15.863281 3.207032-.242188-.089844-.484375-.175782-.726562-.257813zm.765624.269531c.230469.082032.457032.167969.6875.25-.230468-.082031-.460937-.167968-.6875-.25zm.765626.28125c.222656.082032.449218.171875.675781.257813-.226563-.089844-.453125-.175781-.675781-.257813zm.742187.28125c.226563.09375.457031.183594.683594.273438-.226563-.089844-.453125-.179688-.683594-.273438zm.742187.296875c.226563.09375.457032.1875.683594.28125-.226562-.09375-.457031-.1875-.683594-.28125zm.742188.308594c.226562.09375.457031.191406.683594.292969-.226563-.097656-.457032-.195313-.683594-.292969zm.730469.3125c.230469.105469.464843.207031.691406.308594-.226563-.101563-.460937-.207031-.691406-.308594zm.726562.324219c.234375.109375.472657.214844.703125.324218-.230468-.109374-.46875-.214843-.703125-.324218zm-41.414062 10.078125v-12.152344c-.242188.082031-.484375.167969-.722657.257813 5.066407-1.8125 10.378907-2.914063 15.863282-3.207032v15.101563zm-5.917969 0h-14.832031c4.554687-3.96875 9.53125-7.257813 14.832031-9.75zm0-9.753907c.234375-.109374.472656-.21875.707031-.324218-.234375.109375-.472656.214844-.707031.324218zm.738281-.339843c.230469-.101563.460938-.207031.691407-.308594-.230469.101563-.460938.207031-.691407.308594zm.742188-.328125c.226562-.101563.453125-.199219.683593-.292969-.230468.097656-.457031.195313-.683593.292969zm.742187-.320313c.226563-.09375.453125-.1875.683594-.28125-.230469.09375-.457031.1875-.683594.28125zm.738282-.304687c.230468-.089844.457031-.179688.683593-.273438-.226562.09375-.453125.183594-.683593.273438zm.75-.296875c.226562-.089844.453124-.175781.679687-.261719-.226563.085938-.453125.171875-.679687.261719zm.761718-.289063c.226563-.085937.453125-.167968.683594-.25-.230469.082032-.457031.167969-.683594.25zm-19.613281 11.90625c.097656-.089844.195313-.175781.296875-.261718-.101562.085937-.199219.175781-.296875.261718zm-.238281.207032c-.066406.0625-.132813.117187-.199219.179687.144531-.128906.289063-.257813.433594-.386719-.078125.066406-.15625.140625-.234375.207032zm-.359375.324218c-.007813.007813-.019531.015625-.027344.027344-.128906.117188-.257813.230469-.382813.347656-.070312.066406-.140624.128906-.207031.191406.226563-.210937.457031-.421874.6875-.628906-.023437.019532-.046875.042969-.070312.0625zm-.710938.652344c-.003906.003906-.007812.003906-.011719.007812-.023437.023438-.050781.046876-.078124.074219-.125.113281-.25.234375-.375.351563-.132813.121094-.261719.25-.394532.375-.039062.039062-.078125.074218-.117187.109375.335937-.324219.675781-.644531 1.015625-.960938-.011719.015625-.023438.03125-.039063.042969zm16.449219 4.460938v15.140624h-15.140625v-15.140624zm-21.082031 36.203124h-18.769531c-.0625.246094-.125.488282-.1875.734376-.007813.039062-.015626.074218-.023438.113281-.035156.144531-.070312.285156-.105469.429687 1.382813-5.761718 3.277344-11.261718 5.617188-16.421875h13.472656v15.144531zm-19.285157 2.113282c.046876-.191406.089844-.378906.132813-.570313-.042969.191407-.085937.378907-.132813.570313zm-.496093 2.289062c.140625-.695312.289062-1.382812.445312-2.066406-.15625.683594-.304687 1.371094-.445312 2.066406zm-.300781 1.535156h20.082031v15.140626h-21.707031c.152343-5.183594.707031-10.242188 1.625-15.140626zm0 0c.042968-.222656.085937-.445312.128906-.664062-.042969.21875-.089844.441406-.128906.664062zm.160156-.828124c.042968-.222657.085937-.441407.128906-.664063-.042969.222656-.085938.441406-.128906.664063zm-1.8125 17.121093c.003906-.226562.011718-.453125.015625-.679687-.007813.226562-.011719.453125-.015625.679687zm42.816406 4.769531v15.136719h-15.140625v-15.136719zm0 21.058594v15.140625h-15.140625v-15.140625zm0 21.058594v15.140625h-15.140625v-15.140625zm-17.640625 18.476562c.066406.066407.132813.128907.199219.195313-.242188-.234375-.480469-.464844-.714844-.699219.023438.023438.054688.050782.078125.078125.144531.140625.289063.285157.4375.425781zm-.5625-.550781c-.144531-.140625-.285156-.28125-.429687-.425781.089843.085938.175781.175781.265624.261719.054688.054687.109376.109375.164063.164062zm86.429687-2.046875c.035157-.042968.074219-.085937.113282-.128906.070312-.078125.144531-.15625.214844-.234375.113281-.125.230468-.25.347656-.375h-.003906c.074218-.082031.148437-.160156.21875-.242187v-14.898438h10.515624c1.054688-1.917969 2.042969-3.894531 2.960938-5.921875h-13.476562v-15.140625h18.777343c.109375-.425781.210938-.855469.316407-1.285156-3.589844 14.96875-10.625 28.164062-19.984376 38.226562zm.890626-42.859375v-15.136719h21.710937c-.160156 5.425782-.761719 10.71875-1.757813 15.828126.042969-.230469.085938-.460938.128907-.691407zm19.925781.804688c-.042969.230469-.089844.460937-.132813.6875.042969-.226563.089844-.457031.132813-.6875zm-.140625.722656c-.097656.46875-.195313.933594-.296875 1.398437.101562-.464843.199219-.933593.296875-1.398437zm-.3125 1.464844c-.042969.195312-.089844.386719-.132813.578125.046875-.191406.089844-.382813.132813-.578125zm-.1875.832031c-.042969.1875-.085938.375-.132813.5625.046875-.1875.085938-.371094.132813-.5625zm2.441406-19.703125c.003906-.144531.007812-.289063.007812-.429687 0 .140624-.003906.285156-.007812.429687zm.015625-.976563c.003906-.109374.003906-.222656.003906-.332031 0 .109375 0 .222657-.003906.332031zm0-2.496093c.003906.109375.003906.222656.003906.332031 0-.109375 0-.222656-.003906-.332031zm-9.671875-40.875c-.003906-.003907-.003906-.007813-.003906-.007813-.246094-.492187-.496094-.980468-.75-1.464844-.003906-.007812-.007813-.015624-.011719-.027343-.097656-.183594-.191406-.363281-.292969-.546875-.035156-.066406-.066406-.132813-.105468-.199219-.128907-.242187-.261719-.484375-.394532-.726563h-10.507812v-14.890624c-.078125-.085938-.152344-.167969-.226563-.25h.003907c-.113282-.121094-.222657-.246094-.335938-.367188-.074219-.082031-.148438-.164062-.222656-.242188-.039063-.042968-.078125-.085937-.117188-.128906 5.757813 6.1875 10.632813 13.554688 14.371094 21.792969-.453125-.992187-.921875-1.976563-1.40625-2.941406zm-13.347656-19.25c-.074219-.082031-.152344-.164063-.230469-.242188-.027344-.035156-.054687-.0625-.085937-.09375.1875.195313.375.390625.558593.589844-.082031-.082031-.160156-.167969-.242187-.253906zm-.707032-.738281c-.058593-.058594-.113281-.117188-.171874-.175782.136718.136719.269531.273438.402343.414063-.078125-.078125-.15625-.160157-.230469-.238281zm-.273437-.28125c-.027344-.027344-.054687-.058594-.085937-.089844.058593.0625.117187.121094.175781.179687-.03125-.027343-.058594-.058593-.089844-.089843zm-42.054687-18.9375.46875.011718c-.15625-.003906-.3125-.007812-.46875-.011718zm.75.015624c.214843.007813.429687.015626.640624.023438-.210937-.007812-.425781-.015625-.640624-.023438zm.710937.027344c.238281.011719.472656.019532.707031.03125-.234375-.011718-.46875-.023437-.707031-.03125zm-5.199219.03125c.234375-.011718.46875-.023437.703125-.03125-.234375.007813-.46875.019532-.703125.03125zm.773438-.035156c.214844-.007812.429687-.015625.644531-.023438-.214844.007813-.429687.015626-.644531.023438zm.921875-.027344c.160156-.003906.316406-.007812.472656-.011718-.15625.003906-.316406.007812-.472656.011718zm-41.585938 18.925782c-.027343.03125-.058593.0625-.085937.09375.058594-.0625.113281-.121094.175781-.179688-.03125.027344-.058594.058594-.089844.085938zm-.269531.28125c-.078125.078124-.15625.160156-.230469.238281.132813-.140625.265625-.277344.398438-.414063-.054688.058594-.113281.117188-.167969.175782zm-.476562.496093c-.078126.078125-.15625.160157-.230469.242188-.082031.085937-.160157.167969-.242188.253906.1875-.199219.375-.394531.5625-.589844-.03125.03125-.0625.0625-.089843.09375zm-.726563.769531c-.078125.082032-.148437.164063-.222656.246094-.113281.121094-.226563.242188-.335938.363282h.003907c-.078126.085937-.152344.167968-.226563.25v14.890624h-10.511719c-.132812.242188-.261718.484376-.394531.726563-.035156.066406-.070313.132813-.105469.203125-.09375.179688-.195312.359375-.289062.546875-.007813.007813-.011719.015625-.015625.027344-.253907.484375-.503907.972656-.746094 1.460937-.003906.003906-.003906.007813-.003906.007813-.484375.96875-.953125 1.949219-1.402344 2.945312 3.738281-8.238281 8.613281-15.605469 14.371094-21.792969-.042969.042969-.082031.082032-.121094.125zm-22.527344 59.597657c-.003906.109375-.003906.222656-.003906.332031 0-.109375.003906-.222656.003906-.332031zm.015625 3.472656c-.003906-.144531-.003906-.289063-.007812-.429687.003906.140624.003906.285156.007812.429687zm-.015625-.976563c0-.109374 0-.222656-.003906-.332031 0 .109375.003906.222657.003906.332031zm21.742188 1.71875v15.136719h-20.078125c.039062.230469.085937.460938.132812.691407-1-5.109376-1.601562-10.402344-1.761718-15.828126zm-19.335938 18.714844c-.15625-.679687-.304687-1.363281-.445312-2.050781.140625.6875.289062 1.371094.445312 2.050781zm-.453125-2.085937c-.046875-.226563-.09375-.457031-.136718-.6875.042968.230469.089843.460937.136718.6875zm1.015625 4.429687h18.773438v15.140625h-13.476563c.921875 2.027344 1.910156 4 2.964844 5.917969h10.511719v14.898438c.074219.082031.148437.164062.222656.242187h-.007813c.117188.125.230469.25.347657.375.074219.078125.144531.160156.214843.238281.039063.042969.078126.082032.117188.125-9.363281-10.058594-16.398438-23.253906-19.988281-38.222656.105469.429688.210937.859375.320312 1.285156zm-.378906-1.535156c-.042969-.1875-.085937-.371094-.128906-.5625.042969.191406.085937.375.128906.5625zm0 0" fill="#382b73"/><path d="m336.808594 240.367188c-13.863282-3.378907-27.835938 5.125-31.210938 18.984374-3.375 13.863282 5.125 27.839844 18.988282 31.214844 13.859374 3.375 27.835937-5.125 31.210937-18.988281s-5.125-27.835937-18.988281-31.210937zm0 0" fill="#1caee4"/><path d="m339.148438 265.464844c0 7.691406 3.363281 14.59375 8.695312 19.328125 5.332031-4.734375 8.691406-11.636719 8.691406-19.328125 0-7.6875-3.359375-14.59375-8.691406-19.324219-5.332031 4.730469-8.695312 11.636719-8.695312 19.324219zm0 0" fill="#27c1e6"/><path d="m304.871094 265.464844c0 7.691406 3.359375 14.59375 8.691406 19.328125 5.332031-4.734375 8.695312-11.636719 8.695312-19.328125 0-7.6875-3.363281-14.59375-8.695312-19.324219-5.332031 4.730469-8.691406 11.636719-8.691406 19.324219zm0 0" fill="#27c1e6"/><path d="m311.671875 247.996094c.042969.042968.085937.085937.128906.125 4.960938 4.402344 7.804688 10.722656 7.804688 17.347656 0 6.621094-2.84375 12.941406-7.804688 17.34375-.042969.039062-.085937.082031-.128906.125 1.203125 1.308594 2.539063 2.496094 3.984375 3.53125 5.882812-5.390625 9.25-13.015625 9.25-21s-3.367188-15.613281-9.25-21.003906c-1.445312 1.039062-2.78125 2.222656-3.984375 3.53125zm0 0" fill="#fff"/><path d="m349.730469 282.9375c-.039063-.042969-.082031-.085938-.128907-.125-4.960937-4.40625-7.804687-10.726562-7.804687-17.347656 0-6.617188 2.84375-12.941406 7.804687-17.34375.046876-.042969.089844-.082032.128907-.125-1.199219-1.308594-2.535157-2.492188-3.984375-3.53125-5.878906 5.390625-9.246094 13.019531-9.246094 21 0 7.984375 3.367188 15.609375 9.246094 21 1.449218-1.035156 2.785156-2.21875 3.984375-3.527344zm0 0" fill="#fff"/><path d="m330.703125 274.851562c-11.394531 0-21.0625-7.375-24.496094-17.609374-.867187 2.582031-1.339843 5.351562-1.339843 8.222656 0 14.269531 11.566406 25.835937 25.835937 25.835937 14.265625 0 25.832031-11.566406 25.832031-25.835937 0-2.875-.46875-5.640625-1.335937-8.222656-3.433594 10.234374-13.105469 17.609374-24.496094 17.609374zm0 0" fill="#009add"/><path d="m304.886719 266.363281c.003906.164063.011719.328125.019531.488281.003906.085938.007812.171876.015625.257813.011719.144531.019531.285156.03125.425781.007813.09375.015625.1875.023437.28125.011719.136719.023438.269532.039063.402344.007813.089844.019531.179688.03125.269531.015625.140625.03125.277344.050781.414063.011719.089844.023438.179687.035156.269531.019532.132813.042969.269531.0625.398437.011719.089844.027344.179688.042969.269532.023438.136718.046875.269531.070313.402344.015625.085937.035156.171874.050781.257812.027344.136719.054687.273438.085937.410156.015626.082032.035157.167969.050782.25.035156.140625.066406.285156.101562.425782.019532.070312.035156.140624.050782.214843.042968.15625.082031.316407.128906.472657.015625.054687.027344.113281.042968.167968.050782.175782.105469.351563.15625.523438.011719.039062.019532.078125.035157.113281.265625.863281.574219 1.710937.925781 2.53125.003906.011719.011719.023437.015625.035156.082031.191407.164063.382813.253906.570313.011719.027344.023438.050781.035157.078125.078124.171875.160156.34375.246093.515625.019531.039062.035157.070312.050781.105468.085938.171876.167969.335938.253907.5.015625.027344.027343.054688.042969.082032.089843.167968.179687.339844.273437.507812.015625.027344.03125.054688.046875.082032.09375.171874.191406.335937.289062.503906.015626.023437.027344.042968.039063.066406.105469.179688.214844.355469.320313.527344.007812.007812.011718.015625.015624.023437 1.3125 2.082031 2.910157 3.960938 4.738282 5.585938 3.511718-3.113281 6.164062-7.171875 7.570312-11.773438-7.011718-2.796875-12.511718-8.578125-14.925781-15.777343-.0625.1875-.121094.375-.179687.5625-.019532.066406-.039063.128906-.058594.195312-.039063.136719-.082032.273438-.121094.410156-.019531.066406-.039062.136719-.058594.203125-.046875.164063-.089844.332031-.132812.503907-.007813.03125-.015625.0625-.023438.09375-.050781.191406-.09375.390624-.140625.582031-.015625.070312-.027343.140625-.042969.210937-.03125.136719-.0625.28125-.089843.421875-.011719.066407-.027344.136719-.039063.203125-.035156.179688-.066406.359375-.097656.542969-.003906.023437-.007812.046875-.011719.074219-.035156.203125-.066406.40625-.09375.613281-.007812.0625-.015625.125-.023437.183594-.019532.15625-.039063.3125-.058594.46875-.007812.058593-.011719.121093-.019531.183593-.023438.203126-.042969.410157-.058594.613282v.019531c-.019531.214844-.03125.429687-.046875.640625-.003906.058594-.003906.117188-.007812.175781-.007813.164063-.015626.332031-.019532.496094-.003906.058594-.003906.117187-.007812.175781-.003906.21875-.007813.433594-.007813.652344 0 .234375.003907.464844.011719.695312.003906.066407.007812.132813.011719.199219zm0 0" fill="#1caee4"/><path d="m356.523438 264.636719c-.007813-.160157-.011719-.320313-.019532-.480469-.007812-.0625-.007812-.128906-.011718-.199219-.011719-.210937-.027344-.417969-.042969-.628906 0-.007813-.003907-.015625-.003907-.019531-.015624-.207032-.039062-.410156-.058593-.617188-.007813-.0625-.015625-.121094-.019531-.183594-.019532-.15625-.039063-.3125-.058594-.464843-.007813-.0625-.015625-.125-.023438-.183594-.03125-.210937-.0625-.414063-.09375-.621094-.003906-.011719-.003906-.019531-.007812-.03125-.03125-.191406-.066406-.386719-.105469-.578125-.011719-.066406-.023437-.136718-.039063-.203125-.027343-.140625-.054687-.285156-.085937-.421875-.015625-.070312-.03125-.140625-.046875-.210937-.039062-.179688-.082031-.363281-.125-.539063-.015625-.058594-.03125-.117187-.046875-.175781-.039063-.148437-.078125-.304687-.121094-.457031-.019531-.074219-.042969-.148438-.0625-.226563-.035156-.125-.074219-.253906-.109375-.375-.023437-.074219-.046875-.148437-.066406-.21875-.058594-.183593-.117188-.367187-.175781-.546875 0-.003906-.003907-.007812-.003907-.011718-2.414062 7.199218-7.914062 12.980468-14.925781 15.78125 1.40625 4.601562 4.0625 8.65625 7.574219 11.769531.003906 0 .003906-.003907.007812-.007813.160157-.140625.320313-.289062.476563-.433594.003906-.003906.007813-.007812.015625-.011718 1.460938-1.367188 2.761719-2.898438 3.875-4.570313 0-.003906.003906-.007812.007812-.011719.117188-.179687.230469-.355468.34375-.535156.015626-.019531.027344-.039062.039063-.0625.101563-.164062.199219-.324218.296875-.484375.023438-.035156.042969-.070312.0625-.105469.089844-.15625.179688-.3125.269531-.472656.023438-.035156.042969-.066406.058594-.105468.089844-.152344.171875-.3125.257813-.472657.019531-.039062.042968-.078125.0625-.117187.078124-.15625.160156-.308594.238281-.46875.019531-.042969.039062-.085938.0625-.128906.078125-.160157.15625-.324219.234375-.488282.015625-.035156.03125-.070312.046875-.101562.085937-.183594.167969-.371094.25-.558594.003906-.015625.011719-.027344.015625-.042969.351562-.820312.660156-1.660156.925781-2.523437.015625-.050782.03125-.101563.046875-.152344.046875-.160156.09375-.320312.140625-.484375.019531-.066406.035156-.132813.054687-.195313.039063-.148437.078126-.296874.113282-.445312.023437-.078125.039062-.15625.058594-.234375.035156-.136719.066406-.273437.097656-.410156.019531-.082031.035156-.167969.054687-.253907.03125-.132812.058594-.269531.085938-.40625.015625-.085937.03125-.171874.050781-.257812.023438-.132812.046875-.269531.070312-.402344.015626-.089844.03125-.179687.042969-.269531.019531-.132813.042969-.265625.0625-.398437.011719-.089844.023438-.183594.035157-.273438.019531-.132812.035156-.273438.050781-.410156.011719-.089844.023437-.179688.03125-.269532.015625-.132812.027343-.269531.039062-.402343.007813-.09375.019531-.1875.027344-.285157.007813-.132812.015625-.265624.027344-.402343.003906-.09375.011719-.191407.015625-.285157.011718-.15625.015625-.3125.023437-.46875 0-.074218.003907-.144531.007813-.214843.003906-.230469.007812-.464844.007812-.699219 0-.214844-.003906-.433594-.007812-.648438 0-.0625-.003906-.125-.003906-.183593zm0 0" fill="#1caee4"/><path d="m349.601562 282.8125c-3.316406-2.945312-5.683593-6.746094-6.890624-10.917969-1.558594.820313-3.210938 1.484375-4.9375 1.976563 1.484374 4.785156 4.210937 9.148437 7.972656 12.597656.179687-.125.351562-.257812.527344-.386719.015624-.011719.03125-.023437.046874-.039062.15625-.117188.3125-.242188.46875-.363281.019532-.015626.039063-.035157.0625-.050782.152344-.117187.296876-.238281.445313-.363281.023437-.023437.050781-.042969.074219-.066406.140625-.117188.277344-.238281.417968-.359375.027344-.027344.058594-.050782.085938-.074219.140625-.125.277344-.25.414062-.378906.019532-.019531.039063-.035157.0625-.058594.136719-.128906.277344-.261719.414063-.394531.023437-.023438.042969-.042969.0625-.0625.144531-.140625.285156-.285156.425781-.429688.011719-.007812.019532-.019531.03125-.03125.152344-.15625.300782-.316406.449219-.476562-.042969-.039063-.089844-.082032-.132813-.121094zm0 0" fill="#d1d3d4"/><path d="m318.695312 271.894531c-1.207031 4.171875-3.578124 7.976563-6.890624 10.914063-.046876.042968-.089844.082031-.128907.128906 0 0 .003907.003906.003907.003906.144531.160156.292968.316406.441406.46875.011718.011719.023437.023438.03125.035156.140625.144532.28125.285157.425781.425782l.0625.0625c.136719.132812.273437.269531.414063.398437.019531.019531.042968.035157.058593.054688.140625.128906.28125.257812.421875.382812.027344.023438.054688.046875.078125.070313.140625.121094.28125.246094.425781.367187.023438.019531.046876.035157.066407.058594.148437.121094.292969.242187.441406.359375.023437.019531.050781.039062.074219.058594.15625.125.316406.25.476562.371094.011719.007812.023438.019531.03125.027343.175782.132813.351563.261719.527344.390625 3.765625-3.449218 6.496094-7.8125 7.976562-12.597656-1.726562-.496094-3.378906-1.160156-4.9375-1.980469zm0 0" fill="#d1d3d4"/><path d="m238.800781 270.46875c-43.480469 0-78.851562-41.871094-78.851562-93.335938 0-51.460937 35.371093-93.332031 78.851562-93.332031 43.476563 0 78.851563 41.871094 78.851563 93.332031 0 51.464844-35.375 93.335938-78.851563 93.335938zm0-174.667969c-36.863281 0-66.851562 36.484375-66.851562 81.332031 0 44.847657 29.988281 81.335938 66.851562 81.335938 36.859375 0 66.851563-36.488281 66.851563-81.335938 0-44.847656-29.992188-81.332031-66.851563-81.332031zm0 0" fill="#1caee4"/><path d="m242.996094 314.421875c-2.332032 2.28125-6.058594 2.28125-8.390625 0-1.695313-1.660156-41.695313-41.125-62.492188-87.464844l10.949219-4.914062c16.039062 35.738281 44.957031 68.109375 55.738281 79.484375 10.785157-11.386719 39.71875-43.789063 55.738281-79.476563l10.949219 4.914063c-20.804687 46.339844-60.796875 85.796875-62.492187 87.457031zm0 0" fill="#1caee4"/><path d="m311.652344 177.132812c0-48.234374-32.617188-87.332031-72.851563-87.332031-40.238281 0-72.851562 39.097657-72.851562 87.332031 0 17.464844 4.273437 33.730469 11.640625 47.375 15.785156 35.164063 43.375 66.765626 55.367187 79.578126 3.167969 3.382812 8.519531 3.382812 11.6875 0 11.996094-12.8125 39.585938-44.414063 55.367188-79.578126 7.363281-13.644531 11.640625-29.910156 11.640625-47.375zm-72.851563-81.332031c36.859375 0 66.851563 36.484375 66.851563 81.332031 0 44.847657-29.992188 81.335938-66.851563 81.335938-36.863281 0-66.851562-36.488281-66.851562-81.335938 0-44.84375 29.988281-81.332031 66.851562-81.332031zm-5.933593 199.292969c-9.070313-10.089844-22.765626-26.46875-34.875-45.605469 11.644531 9.457031 25.6875 14.976563 40.808593 14.976563 15.113281 0 29.15625-5.519532 40.796875-14.96875-12.105468 19.121094-25.800781 35.5-34.871094 45.597656-3.164062 3.523438-8.691406 3.523438-11.859374 0zm0 0" fill="#009add"/><path d="m229.800781 307.632812h18v14.5h-18zm0 0" fill="#1caee4"/><path d="m229.800781 322.132812h18v62.667969h-18zm0 0" fill="#bcbec0"/><path d="m249.382812 392.300781h-21.164062c-1.105469 0-2-.898437-2-2v-3.5c0-1.105469.894531-2 2-2h21.164062c1.105469 0 2 .894531 2 2v3.5c0 1.101563-.894531 2-2 2zm0 0" fill="#e6e7e8"/><path d="m244.195312 392.300781h-10.792968c-.816406 0-1.476563-.664062-1.476563-1.480469v-4.542968c0-.816406.660157-1.476563 1.476563-1.476563h10.792968c.816407 0 1.480469.660157 1.480469 1.476563v4.542968c0 .816407-.660156 1.480469-1.480469 1.480469zm0 0" fill="#fff"/><path d="m247.800781 334.648438-18-4.171876v-8.34375l18 4.171876zm0 0" fill="#d1d3d4"/><path d="m247.800781 343.007812-18-4.171874v-8.34375l18 4.171874zm0 0" fill="#bcbec0"/><path d="m247.800781 351.367188-18-4.171876v-8.34375l18 4.171876zm0 0" fill="#d1d3d4"/><path d="m247.800781 359.726562-18-4.175781v-8.34375l18 4.171875zm0 0" fill="#bcbec0"/><path d="m247.800781 368.085938-18-4.175782v-8.34375l18 4.171875zm0 0" fill="#d1d3d4"/><path d="m247.800781 376.441406-18-4.171875v-8.34375l18 4.171875zm0 0" fill="#bcbec0"/><path d="m247.800781 384.800781-18-4.171875v-8.34375l18 4.171875zm0 0" fill="#d1d3d4"/><path d="m233.800781 322.132812h10v62.667969h-10zm0 0" fill="#d1d3d4"/><path d="m233.800781 381.554688 10 2.316406v-8.34375l-10-2.316406zm0 0" fill="#e6e7e8"/><path d="m233.800781 373.195312 10 2.320313v-8.34375l-10-2.320313zm0 0" fill="#d1d3d4"/><path d="m233.800781 364.839844 10 2.316406v-8.34375l-10-2.320312zm0 0" fill="#e6e7e8"/><path d="m233.800781 356.480469 10 2.316406v-8.34375l-10-2.316406zm0 0" fill="#d1d3d4"/><path d="m233.800781 348.121094 10 2.320312v-8.34375l-10-2.320312zm0 0" fill="#e6e7e8"/><path d="m233.800781 339.765625 10 2.316406v-8.347656l-10-2.316406zm0 0" fill="#d1d3d4"/><path d="m233.800781 331.40625 10 2.316406v-8.34375l-10-2.320312zm0 0" fill="#e6e7e8"/><path d="m214.78125 101.230469c1.929688-.910157 3.90625-1.710938 5.917969-2.402344v156.609375c-2.011719-.691406-3.988281-1.492188-5.917969-2.398438zm-21.082031 15.917969v119.96875c1.886719 2.097656 3.867187 4.070312 5.941406 5.898437v-131.761719c-2.074219 1.824219-4.054687 3.796875-5.941406 5.894532zm63.199219 138.289062c2.015624-.691406 3.988281-1.492188 5.921874-2.398438v-151.808593c-1.933593-.910157-3.90625-1.710938-5.921874-2.402344zm21.0625-144.183594v131.761719c2.070312-1.828125 4.054687-3.800781 5.9375-5.898437v-119.96875c-1.882813-2.097657-3.867188-4.070313-5.9375-5.894532zm-42.121094-15.375v162.507813c.980468.050781 1.96875.078125 2.960937.078125.992188 0 1.976563-.027344 2.960938-.078125v-162.507813c-.984375-.050781-1.96875-.078125-2.960938-.078125-.992187 0-1.980469.027344-2.960937.078125zm0 0" fill="#fff"/><path d="m180.222656 216.300781h117.152344c-.917969 2.027344-1.90625 4-2.960938 5.917969h-111.226562c-1.054688-1.917969-2.042969-3.890625-2.964844-5.917969zm19.71875 26.980469h77.714844c2.101562-1.835938 4.113281-3.8125 6.023438-5.921875h-89.765626c1.914063 2.109375 3.925782 4.089844 6.027344 5.921875zm105.667969-69.101562h-133.617187c-.027344.980468-.042969 1.964843-.042969 2.953124 0 .996094.015625 1.984376.042969 2.96875h133.613281c.03125-.984374.042969-1.976562.042969-2.96875.003906-.988281-.011719-1.972656-.039063-2.953124zm-2.9375-21.078126h-127.742187c-.496094 1.949219-.9375 3.929688-1.3125 5.9375h130.367187c-.378906-2.007812-.8125-3.988281-1.3125-5.9375zm-8.261719-21.0625h-111.21875c-1.054687 1.917969-2.042968 3.894532-2.964844 5.921876h117.148438c-.921875-2.027344-1.910156-4.003907-2.964844-5.921876zm-119.484375 69.121094h127.75c.496094-1.945312.929688-3.917968 1.304688-5.921875h-130.359375c.371094 2.003907.808594 3.976563 1.304687 5.921875zm102.722657-90.179687h-77.699219c-2.101563 1.832031-4.113281 3.808593-6.023438 5.917969h89.75c-1.910156-2.109376-3.921875-4.085938-6.027343-5.917969zm0 0" fill="#bcbec0"/><g fill="#fff"><path d="m199.949219 110.980469c-1.089844.953125-2.15625 1.941406-3.195313 2.96875h84.097656c-1.042968-1.027344-2.109374-2.015625-3.203124-2.96875zm0 0"/><path d="m171.992188 174.179688c-.015626.492187-.027344.984374-.03125 1.476562.007812.496094.015624.996094.03125 1.492188h133.617187c.011719-.496094.023437-.992188.03125-1.492188-.007813-.492188-.015625-.984375-.03125-1.476562zm0 0"/><path d="m277.65625 240.328125c1.09375-.949219 2.160156-1.941406 3.199219-2.96875h-84.113281c1.042968 1.027344 2.109374 2.019531 3.199218 2.96875zm0 0"/><path d="m302.675781 198.210938c.25-.984376.484375-1.972657.703125-2.972657h-129.160156c.222656 1 .457031 1.988281.707031 2.972657zm0 0"/><path d="m174.929688 153.101562c-.253907.988282-.488282 1.984376-.710938 2.988282h129.164062c-.222656-1.003906-.457031-2-.710937-2.988282zm0 0"/><path d="m294.414062 219.269531c.535157-.976562 1.054688-1.964843 1.554688-2.96875h-114.339844c.503906 1.003907 1.019532 1.992188 1.558594 2.96875zm0 0"/><path d="m183.191406 132.039062c-.539062.976563-1.058594 1.96875-1.558594 2.972657h114.332032c-.5-1.003907-1.019532-1.996094-1.554688-2.972657zm0 0"/></g></svg>